<?xml version="1.0" encoding="utf-8"?>
<!-- Generator: Adobe Illustrator 18.1.0, SVG Export Plug-In . SVG Version: 6.00 Build 0)  -->
<!DOCTYPE svg PUBLIC "-//W3C//DTD SVG 1.1//EN" "http://www.w3.org/Graphics/SVG/1.1/DTD/svg11.dtd">
<svg version="1.1" id="Layer_1" xmlns="http://www.w3.org/2000/svg" xmlns:xlink="http://www.w3.org/1999/xlink" x="0px" y="0px"
	 width="512px" height="512px" viewBox="0 0 512 512" enable-background="new 0 0 512 512" xml:space="preserve">
<g>
	<g>
		<path fill="#69F1FF" d="M497.6,418.867l-171.2-171.2L481.067,93c19.2-19.2,19.2-50.667,0-69.867s-50.667-19.2-69.867,0
			L256.533,177.8L101.867,23.133C82.667,3.4,51.2,3.4,32,23.133C12.8,42.333,12.8,73.8,32,93l154.667,154.667L14.4,419.4
			c-19.2,19.2-19.2,50.667,0,69.867s50.667,19.2,69.867,0L256.533,317l171.2,171.2c19.2,19.2,50.667,19.2,69.867,0
			C516.8,469,516.8,438.067,497.6,418.867z"/>
	</g>
</g>
</svg>
