<?xml version="1.0" encoding="utf-8"?>
<!-- Generator: Adobe Illustrator 18.0.0, SVG Export Plug-In . SVG Version: 6.00 Build 0)  -->
<!DOCTYPE svg PUBLIC "-//W3C//DTD SVG 1.1//EN" "http://www.w3.org/Graphics/SVG/1.1/DTD/svg11.dtd">
<svg version="1.1" id="Layer_1" xmlns="http://www.w3.org/2000/svg" xmlns:xlink="http://www.w3.org/1999/xlink" x="0px" y="0px"
	 width="512px" height="512px" viewBox="0 0 512 512" enable-background="new 0 0 512 512" xml:space="preserve">
<path d="M460.8,0H51.198C22.933,0,0,22.922,0,51.198v409.605
	C0,489.067,22.933,512,51.198,512H460.8c28.265,0,51.2-22.933,51.2-51.198V51.198C512,22.922,489.065,0,460.8,0z M438.864,184.681
	l-4.842,63.007h-64.624v218.963H287.75V247.689h-43.567v-63.007h43.567v-19.767v-19.36v-3.233c0-18.638,0.485-47.439,14.038-65.268
	c14.281-18.88,33.886-31.703,67.61-31.703c54.943,0,78.099,7.819,78.099,7.819l-10.894,64.546c0,0-18.153-5.246-35.093-5.246
	c-16.943,0-32.113,6.054-32.113,22.992v6.86v22.593v19.767H438.864z"/>
</svg>
