<?xml version="1.0" encoding="utf-8"?>
<!-- Generator: Adobe Illustrator 17.1.0, SVG Export Plug-In . SVG Version: 6.00 Build 0)  -->
<!DOCTYPE svg PUBLIC "-//W3C//DTD SVG 1.1//EN" "http://www.w3.org/Graphics/SVG/1.1/DTD/svg11.dtd">
<svg version="1.1" id="Layer_1" xmlns="http://www.w3.org/2000/svg" xmlns:xlink="http://www.w3.org/1999/xlink" x="0px" y="0px"
	 width="512px" height="512px" viewBox="0 0 512 512" enable-background="new 0 0 512 512" xml:space="preserve">
<path fill="#AD3E3E" d="M356.34,96.651c0,0,12.312,42.582-2.667,77.763C337.828,84.902,256.764,25.751,202.745-0.499
	c13.102,142.358-74.543,216.615-74.543,216.615c2.415-43.555-11.484-66.699-11.484-66.699s-10.785,48.457-35.172,90.721
	c-95.904,166.189,67.846,252.577,97.288,266.447c-21.301-23.605-36.1-59.829-7.488-109.411c12.995-22.517,18.74-48.334,18.74-48.334
	s22.052,12.329,20.765,35.535c0,0,32.288-38.396,32.875-115.408c25.838,12.558,141.984,126.692,69.643,242.533
	C609.783,391.613,356.34,96.651,356.34,96.651z"/>
</svg>
