<?xml version="1.0" encoding="utf-8"?>
<!-- Generator: Adobe Illustrator 17.1.0, SVG Export Plug-In . SVG Version: 6.00 Build 0)  -->
<!DOCTYPE svg PUBLIC "-//W3C//DTD SVG 1.1//EN" "http://www.w3.org/Graphics/SVG/1.1/DTD/svg11.dtd">
<svg version="1.1" id="Layer_1" xmlns="http://www.w3.org/2000/svg" xmlns:xlink="http://www.w3.org/1999/xlink" x="0px" y="0px"
	 width="512px" height="512px" viewBox="0 0 512 512" enable-background="new 0 0 512 512" xml:space="preserve">
<path fill-rule="evenodd" clip-rule="evenodd" fill="#3030A0" d="M510.078,134.557c0,0-45.144-25.829-77.072-57.678
	C401.077,45.031,375.184,0,375.184,0s-31.316,99.899-6.162,136.507l-29.291,26.139c-29.877-30.487-49.36-58.791-49.36-58.791
	s6.024,40.888,34.225,72.297l-26.801,23.918c-36.241-37.992-56.166-76.439-56.166-76.439s3.091,54.17,36.788,93.732l-28.259,25.218
	c-45.059-48.085-67.502-98.591-67.502-98.591s2.176,69.428,43.883,119.668l-29.637,26.448
	c-54.684-60.38-78.637-125.761-78.637-125.761s-0.993,88.642,48.78,152.406l-29.332,26.175
	c-39.169-42.777-69.853-90.231-69.853-90.231S-37.815,411.093,18.395,481.406l108.428-68.671L74.56,511.76
	c77.783,6.027,161.764-103.236,161.764-103.236s-28-3.468-64.643-32.921l25.75-28.71c63.87,49.098,152.081,48.121,152.081,48.121
	s-65.072-23.72-125.419-77.849l27.013-30.119c49.799,37.534,114.621,39.557,114.621,39.557s-47.187-20.864-93.824-62.745
	l25.575-28.516c39.025,29.637,88.681,32.457,88.681,32.457s-35.277-18.183-71.682-51.411l24.203-26.986
	c30.622,24.405,67.314,29.788,67.314,29.788s-25.429-17.414-54.07-44.555l26.23-29.246
	C415.021,169.247,510.078,134.557,510.078,134.557z M89.426,371.333l-14.394,4.178l4.178,14.394
	c0.629,2.168-0.618,4.436-2.786,5.065c-2.168,0.629-4.436-0.618-5.065-2.786l-4.178-14.394l-14.394,4.178
	c-2.168,0.629-4.436-0.618-5.065-2.786c-0.629-2.168,0.618-4.436,2.786-5.065l14.394-4.178l-4.178-14.394
	c-0.629-2.168,0.618-4.436,2.786-5.065c2.168-0.629,4.436,0.618,5.065,2.786l4.178,14.394l14.394-4.179
	c2.168-0.629,4.436,0.618,5.065,2.786C92.842,368.436,91.594,370.704,89.426,371.333z"/>
</svg>
