<?xml version="1.0" encoding="utf-8"?>
<!-- Generator: Adobe Illustrator 18.0.0, SVG Export Plug-In . SVG Version: 6.00 Build 0)  -->
<!DOCTYPE svg PUBLIC "-//W3C//DTD SVG 1.1//EN" "http://www.w3.org/Graphics/SVG/1.1/DTD/svg11.dtd">
<svg version="1.1" id="Layer_1" xmlns="http://www.w3.org/2000/svg" xmlns:xlink="http://www.w3.org/1999/xlink" x="0px" y="0px"
	 width="512px" height="512px" viewBox="0 0 512 512" enable-background="new 0 0 512 512" xml:space="preserve">
<path d="M489.369,101.973c-11.48-9.787-26.357-15.707-42.624-15.707H66.254
	c-16.267,0-31.144,5.92-42.623,15.707L256.5,301.655L489.369,101.973z M512.406,148.512c-0.426-8.096-2.327-15.798-5.422-22.859
	c-0.65-1.279-1.336-2.522-2.096-3.693L256.5,334.953L8.113,121.961c-0.758,1.169-1.443,2.41-2.092,3.686
	c-3.097,7.062-4.999,14.766-5.425,22.865c-0.049,1.153-0.095,2.309-0.095,3.509v234.01c0,36.317,29.439,65.758,65.753,65.758
	h380.491c36.315,0,65.755-29.441,65.755-65.758v-234.01C512.501,150.821,512.455,149.665,512.406,148.512z"/>
</svg>
