<?xml version="1.0" encoding="utf-8"?>
<!-- Generator: Adobe Illustrator 18.1.0, SVG Export Plug-In . SVG Version: 6.00 Build 0)  -->
<!DOCTYPE svg PUBLIC "-//W3C//DTD SVG 1.1//EN" "http://www.w3.org/Graphics/SVG/1.1/DTD/svg11.dtd">
<svg version="1.1" id="Layer_1" xmlns="http://www.w3.org/2000/svg" xmlns:xlink="http://www.w3.org/1999/xlink" x="0px" y="0px"
	 width="512px" height="512px" viewBox="0 0 512 512" enable-background="new 0 0 512 512" xml:space="preserve">
<path fill="#30858C" d="M474.755,389.727H36.812c-20.246,0-36.762,16.516-36.762,36.762c0,20.246,16.516,36.762,36.762,36.762
	h438.477c20.246,0,36.762-16.516,36.762-36.762C511.517,406.243,495.001,389.727,474.755,389.727z"/>
<path fill="#30858C" d="M474.755,219.238H36.812C16.566,219.238,0.05,235.754,0.05,256s16.516,36.762,36.762,36.762h438.477
	c20.246,0,36.762-16.516,36.762-36.762S495.001,219.238,474.755,219.238z"/>
<path fill="#30858C" d="M36.812,122.273h438.477c20.246,0,36.762-16.516,36.762-36.762s-16.516-36.762-36.762-36.762H36.812
	c-20.246,0-36.762,16.516-36.762,36.762S16.566,122.273,36.812,122.273z"/>
</svg>
