<?xml version="1.0" encoding="utf-8"?>
<!-- Generator: Adobe Illustrator 18.1.0, SVG Export Plug-In . SVG Version: 6.00 Build 0)  -->
<!DOCTYPE svg PUBLIC "-//W3C//DTD SVG 1.1//EN" "http://www.w3.org/Graphics/SVG/1.1/DTD/svg11.dtd">
<svg version="1.1" id="Layer_1" xmlns="http://www.w3.org/2000/svg" xmlns:xlink="http://www.w3.org/1999/xlink" x="0px" y="0px"
	 width="96px" height="96px" viewBox="0 0 96 96" enable-background="new 0 0 96 96" xml:space="preserve">
<path fill="#FFFFFF" d="M48,2.9C23.1,2.9,2.9,23.1,2.9,48S23.1,93.1,48,93.1S93.1,72.9,93.1,48S72.9,2.9,48,2.9z"/>
<g>
	<g>
		<path fill="#A0A5A8" d="M48,96C21.5,96,0,74.5,0,48S21.5,0,48,0s48,21.5,48,48S74.5,96,48,96z M48,2.9C23.1,2.9,2.9,23.1,2.9,48
			S23.1,93.1,48,93.1S93.1,72.9,93.1,48S72.9,2.9,48,2.9z"/>
	</g>
</g>
<path fill="#A0A5A8" d="M29.2,45.9h37.6v4.2H29.2V45.9z"/>
<path fill="#A0A5A8" d="M45.9,29.2h4.2v37.6h-4.2V29.2z"/>
</svg>
