<?xml version="1.0" encoding="utf-8"?>
<!-- Generator: Adobe Illustrator 18.0.0, SVG Export Plug-In . SVG Version: 6.00 Build 0)  -->
<!DOCTYPE svg PUBLIC "-//W3C//DTD SVG 1.1//EN" "http://www.w3.org/Graphics/SVG/1.1/DTD/svg11.dtd">
<svg version="1.1" id="Layer_1" xmlns="http://www.w3.org/2000/svg" xmlns:xlink="http://www.w3.org/1999/xlink" x="0px" y="0px"
	 width="512px" height="512px" viewBox="0 0 512 512" enable-background="new 0 0 512 512" xml:space="preserve">
<g>
	<g>
		<path fill="#1F1111" d="M495.9,447.765l-111-113.6c25.1-34.8,40-77.8,40-124.3c0-115.6-91.5-209.2-204.4-209.2
			s-204.4,93.6-204.4,209.1c0,115.6,91.5,209.2,204.4,209.2c34.8,0,67.6-8.9,96.3-24.6l115.7,118.3L495.9,447.765z M74.5,209.765
			c0-82.5,65.4-149.4,146-149.4c80.7,0,146,66.9,146,149.4s-65.4,149.4-146,149.4C139.9,359.265,74.5,292.365,74.5,209.765z"/>
	</g>
</g>
</svg>
