<?xml version="1.0" encoding="utf-8"?>
<!-- Generator: Adobe Illustrator 18.0.0, SVG Export Plug-In . SVG Version: 6.00 Build 0)  -->
<!DOCTYPE svg PUBLIC "-//W3C//DTD SVG 1.1//EN" "http://www.w3.org/Graphics/SVG/1.1/DTD/svg11.dtd">
<svg version="1.1" id="Layer_1" xmlns="http://www.w3.org/2000/svg" xmlns:xlink="http://www.w3.org/1999/xlink" x="0px" y="0px"
	 width="512px" height="512px" viewBox="0 0 512 512" enable-background="new 0 0 512 512" xml:space="preserve">
<g>
	<g>
		<path fill-rule="evenodd" clip-rule="evenodd" fill="#3F86A5" d="M472.561,117.304c-21.781,0-39.439,17.658-39.439,39.439
			s17.658,39.439,39.439,39.439c21.781,0,39.439-17.658,39.439-39.439S494.342,117.304,472.561,117.304z M314.805,290.836
			c-21.781,0-39.439,17.658-39.439,39.439s17.658,39.439,39.439,39.439c21.781,0,39.439-17.658,39.439-39.439
			S336.586,290.836,314.805,290.836z M346.225,283.887l11.893,10.365l83.022-91.12l-11.893-10.365L346.225,283.887z
			 M184.488,252.361l-7.553,13.848l94.654,47.327l7.553-13.848L184.488,252.361z M141.272,196.182
			c-21.781,0-39.439,17.658-39.439,39.439c0,21.781,17.658,39.439,39.439,39.439c21.781,0,39.439-17.658,39.439-39.439
			C180.712,213.84,163.054,196.182,141.272,196.182z M0,384.434l11.982,10.262l97.031-118.581l-11.982-10.262L0,384.434z"/>
	</g>
</g>
</svg>
