<?xml version="1.0" encoding="UTF-8" standalone="no"?>
<svg
   xmlns:dc="http://purl.org/dc/elements/1.1/"
   xmlns:cc="http://creativecommons.org/ns#"
   xmlns:rdf="http://www.w3.org/1999/02/22-rdf-syntax-ns#"
   xmlns:svg="http://www.w3.org/2000/svg"
   xmlns="http://www.w3.org/2000/svg"
   xml:space="preserve"
   enable-background="new 0 0 512 512"
   viewBox="0 0 512 512"
   height="512px"
   width="512px"
   y="0px"
   x="0px"
   id="Layer_1"
   version="1.1"><metadata
     id="metadata23"><rdf:RDF><cc:Work
         rdf:about=""><dc:format>image/svg+xml</dc:format><dc:type
           rdf:resource="http://purl.org/dc/dcmitype/StillImage" /><dc:title></dc:title></cc:Work></rdf:RDF></metadata><defs
     id="defs21" /><path
     style="fill:#8e0e0e"
     id="path3"
     d="m 179.242,218.095 237.714,0 c 26.274,0 47.544,-18.409 47.544,-41.198 0,-22.699 -21.27,-41.198 -47.544,-41.198 l -237.714,0 c -26.273,0 -47.543,18.41 -47.543,41.198 0,22.699 21.27,41.198 47.543,41.198 z" /><path
     style="fill:#8e0e0e"
     id="path5"
     d="m 416.956,284.401 -237.714,0 c -26.273,0 -47.543,18.409 -47.543,41.198 0,22.789 21.27,41.197 47.543,41.197 l 237.714,0 c 26.274,0 47.544,-18.408 47.544,-41.197 0,-22.789 -21.269,-41.198 -47.544,-41.198 z" /><path
     id="path7"
     d="M416.956,429.104H179.242c-26.273,0-47.543,18.408-47.543,41.197s21.27,41.198,47.543,41.198h237.714  c26.274,0,47.544-18.409,47.544-41.198C464.5,447.604,443.231,429.104,416.956,429.104z"
     fill="#8E0E0E" /><g
     id="g9"><path
       id="path11"
       d="M81.662,465.804V237.326c0-25.253-17.693-45.696-39.597-45.696S2.468,212.073,2.468,237.326v228.478   c0,25.253,17.694,45.696,39.598,45.696C63.882,511.5,81.662,491.057,81.662,465.804z"
       fill="#8E0E0E" /><path
       id="path13"
       d="M81.695,273.674V45.196C81.695,19.943,64.001-0.5,42.098-0.5S2.5,19.943,2.5,45.196v228.478   c0,25.253,17.694,45.696,39.598,45.696C63.914,319.37,81.695,298.927,81.695,273.674z"
       fill="#8E0E0E" /><path
       id="path15"
       d="M278.304-0.5H49.826C24.573-0.5,4.13,17.193,4.13,39.097s20.443,39.598,45.696,39.598h228.478   C303.557,78.694,324,61,324,39.097C324,17.28,303.557-0.5,278.304-0.5z"
       fill="#8E0E0E" /><path
       id="path17"
       d="M465.804-0.5H237.326c-25.253,0-45.696,17.693-45.696,39.597s20.443,39.598,45.696,39.598h228.478   c25.253,0,45.696-17.694,45.696-39.598C511.5,17.28,491.057-0.5,465.804-0.5z"
       fill="#8E0E0E" /></g></svg>