<?xml version="1.0" encoding="utf-8"?>
<!-- Generator: Adobe Illustrator 18.0.0, SVG Export Plug-In . SVG Version: 6.00 Build 0)  -->
<!DOCTYPE svg PUBLIC "-//W3C//DTD SVG 1.1//EN" "http://www.w3.org/Graphics/SVG/1.1/DTD/svg11.dtd">
<svg version="1.1" id="Layer_1" xmlns="http://www.w3.org/2000/svg" xmlns:xlink="http://www.w3.org/1999/xlink" x="0px" y="0px"
	 width="512px" height="512px" viewBox="0 0 512 512" enable-background="new 0 0 512 512" xml:space="preserve">
<path d="M512,95.116c-18.837,8.493-39.081,14.229-60.329,16.807
	c21.684-13.21,38.342-34.131,46.185-59.061C477.56,65.097,455.079,73.981,431.15,78.77c-19.16-20.749-46.459-33.714-76.673-33.714
	c-58.01,0-105.043,47.801-105.043,106.757c0,8.366,0.928,16.513,2.718,24.329c-87.299-4.452-164.7-46.955-216.508-111.545
	C26.6,80.363,21.422,98.702,21.422,118.269c0,37.038,18.543,69.712,46.73,88.859c-17.219-0.557-33.418-5.358-47.578-13.352
	c-0.009,0.443-0.009,0.89-0.009,1.34c0,51.726,36.21,94.874,84.26,104.687c-8.811,2.438-18.091,3.744-27.673,3.744
	c-6.77,0-13.35-0.67-19.763-1.914c13.368,42.412,52.16,73.276,98.126,74.136c-35.951,28.634-81.244,45.706-130.458,45.706
	c-8.481,0-16.84-0.51-25.057-1.498c46.485,30.293,101.699,47.968,161.02,47.968c193.212,0,298.871-162.674,298.871-303.755
	c0-4.626-0.102-9.232-0.305-13.811C480.109,135.326,497.918,116.524,512,95.116z"/>
</svg>
