<?xml version="1.0" encoding="utf-8"?>
<!-- Generator: Adobe Illustrator 17.1.0, SVG Export Plug-In . SVG Version: 6.00 Build 0)  -->
<!DOCTYPE svg PUBLIC "-//W3C//DTD SVG 1.1//EN" "http://www.w3.org/Graphics/SVG/1.1/DTD/svg11.dtd">
<svg version="1.1" id="Layer_1" xmlns="http://www.w3.org/2000/svg" xmlns:xlink="http://www.w3.org/1999/xlink" x="0px" y="0px"
	 viewBox="0 0 512 203.6" enable-background="new 0 0 512 203.6" xml:space="preserve">
<g>
	<path fill="#EE4036" d="M22.3,18.5c0,0-4.6,8.1,3.6,10.4c10.3,2.6,21.3,4.2,31.7,8.4c2.9,1.1-0.3,3.8-2.2,3.8
		C37.5,36.1,20.5,30,0,30.8c4.6,5.5,11.4,13.1,12.8,20.6c7.1-5.7,18.2-8.9,26.9-4.2l-10.3,3.6c-16.3,6.1-27.3,23.4-29,39.8
		c-1.5,18.4,8.4,34.5,24.5,42.9c19.5,10.3,50.6,5.9,59.4,26.6c2.1,5,2,14.7-2.2,20.6c-7.4,9.4-17.9,12.2-30.2,10.8
		c0,0-14.5-2-23.1-8.6C16.5,173.5,12.9,161,11.2,147l-7.5-0.1c1.8,17.7,0.1,35.6-2.4,52.3l6.3,0.7c0,0,1.7-4.4,3.4-7.1
		c1.4-1.4,3.9-1.9,5.7-0.6c21.8,15,57.2,14.9,77.7,1.1c14.1-10.4,19.1-26.1,15-42.4c-9.3-32.8-47-29.1-71.5-40.5
		c-8.1-3.2-16.4-11.2-16.4-20.7c-0.1-9.9,3.9-17.9,12.1-23.5c3.3-2.1,6.9-2.3,6.9-2.3c-6.6,6.9-10.7,14.7-9.6,24.8
		c0.9,8.1,7.9,15.9,15.6,18.2c7.6,2.1,14.4-1,20.1-5.3L66,98.1c-3.2,0.9-7.6,0.9-10.9,0.1c-6.8-2.4-9.3-9.1-8.8-16
		c0.5-2.9,2.9-5,6.3-4.1c16.8,6.9,13.7,29.3,29.6,37.1c5.3,1.9,10.2,0.2,13.5-2.1c8.3-5.9,11.3-13.6,13.6-22.9
		c-4.5,5-8.5,10.4-15.1,11.7c-3.3,0.7-5,0-6.9-2.8C80.9,88.7,78.8,71.5,63.6,70c-2.9,0-3.8-0.3-9.2,0.6c3.9-3.2,8.5-6.3,13.7-6.4
		c7.6-0.3,15.4,4.9,18.4,10.2c1.5,2.9,1,7.6-1,10.3l3.5,2.6c5.8-7.4,18-16.9,17.9-23.1c-1-12.2-19.4-19.5-30.3-23.9
		c0,0,1.9-4.8,0.9-8.4c-2.1-4.9-6.6-5.6-10.9-6.8c-7.9-2.2-20.7-3.3-26.5-8.4C34.2,11.5,37,5.9,38.4,0
		C23.1,16.4,22.3,18.5,22.3,18.5z M70.2,44c1.8,0.9,3.7,2.8,4.6,4.5l-16.6-2.7C61.5,43.6,66.3,41.6,70.2,44z"/>
	<g>
		<g>
			<path fill="#231F20" d="M164.7,79.1c-0.2-0.2-0.7-0.6-1.6-1.1c-0.9-0.5-2-1.1-3.3-1.7c-1.3-0.6-2.8-1.1-4.3-1.5
				c-1.6-0.4-3.1-0.6-4.7-0.6c-2.1,0-3.6,0.4-4.7,1.1c-1.1,0.7-1.7,1.8-1.7,3.2c0,0.9,0.2,1.6,0.7,2.2c0.5,0.6,1.2,1.1,2.1,1.6
				c0.9,0.5,2,0.9,3.4,1.3c1.3,0.4,2.9,0.8,4.6,1.3c2.5,0.7,4.7,1.4,6.7,2.2c2,0.8,3.7,1.8,5.1,3c1.4,1.2,2.5,2.6,3.3,4.4
				c0.8,1.7,1.1,3.8,1.1,6.2c0,2.9-0.5,5.4-1.6,7.4c-1.1,2-2.6,3.7-4.4,4.9c-1.8,1.2-3.9,2.1-6.3,2.7c-2.4,0.6-4.8,0.8-7.3,0.8
				c-1.9,0-3.8-0.1-5.8-0.4c-2-0.3-3.9-0.7-5.8-1.3c-1.9-0.6-3.8-1.2-5.6-2c-1.8-0.8-3.5-1.7-5-2.7l5.3-10.5c0.2,0.2,0.9,0.7,2,1.4
				c1.1,0.7,2.4,1.4,4,2.1c1.6,0.7,3.3,1.3,5.3,1.8c2,0.5,3.9,0.8,5.9,0.8c4.2,0,6.4-1.3,6.4-3.9c0-1-0.3-1.8-1-2.4
				c-0.6-0.6-1.5-1.2-2.6-1.7c-1.1-0.5-2.4-1-3.9-1.4c-1.5-0.4-3.2-0.9-5-1.5c-2.4-0.7-4.5-1.5-6.2-2.4c-1.8-0.9-3.2-1.8-4.4-3
				c-1.2-1.1-2-2.4-2.6-3.9c-0.6-1.5-0.8-3.2-0.8-5.1c0-2.7,0.5-5.2,1.5-7.3c1-2.1,2.4-3.9,4.2-5.3c1.8-1.4,3.8-2.5,6.1-3.3
				c2.3-0.7,4.8-1.1,7.4-1.1c1.9,0,3.7,0.2,5.4,0.5c1.8,0.3,3.4,0.8,5,1.3c1.6,0.5,3.1,1.1,4.5,1.8c1.4,0.7,2.7,1.4,3.8,2.1
				L164.7,79.1z"/>
			<path fill="#231F20" d="M188.1,116.6c-3.9,0-6.9-1.2-8.9-3.7c-2.1-2.5-3.1-6.1-3.1-10.9V77.4h11.7v22.1c0,2.3,0.5,4.1,1.4,5.4
				c0.9,1.2,2.2,1.9,4,1.9c1.6,0,3.1-0.4,4.5-1.3c1.5-0.8,2.8-2.3,3.9-4.3V77.4h11.7v25.3c0,1.2,0.2,2,0.7,2.5
				c0.4,0.5,1.2,0.7,2.3,0.8v9.9c-1.2,0.2-2.3,0.4-3.2,0.5c-0.9,0.1-1.7,0.1-2.4,0.1c-4.1,0-6.5-1.7-7.1-4.9l-0.2-2.3
				c-1.8,2.5-3.9,4.4-6.6,5.6C194.2,116,191.3,116.6,188.1,116.6z"/>
			<path fill="#231F20" d="M259.2,115.9h-11.7V94.3c0-2.5-0.5-4.4-1.4-5.5c-1-1.1-2.2-1.7-3.8-1.7c-0.8,0-1.7,0.2-2.5,0.5
				c-0.9,0.3-1.7,0.8-2.4,1.4c-0.8,0.6-1.5,1.3-2.1,2.1c-0.6,0.8-1.1,1.7-1.5,2.7v22.1H222V77.4h10.6v6.4c1.4-2.3,3.4-4.1,6-5.3
				c2.6-1.2,5.6-1.9,8.9-1.9c2.5,0,4.5,0.5,6,1.4c1.5,0.9,2.7,2.1,3.6,3.5c0.8,1.4,1.4,3,1.7,4.7c0.3,1.7,0.4,3.4,0.4,5V115.9z"/>
			<path fill="#231F20" d="M282.1,116.6c-2.6,0-5.1-0.5-7.3-1.5c-2.2-1-4.1-2.4-5.7-4.2c-1.6-1.8-2.9-3.9-3.8-6.3
				c-0.9-2.4-1.4-5.1-1.4-7.9c0-2.8,0.4-5.4,1.2-7.9c0.8-2.4,2-4.5,3.5-6.3c1.5-1.8,3.3-3.2,5.4-4.2c2.1-1,4.4-1.5,6.9-1.5
				c2.6,0,5.1,0.6,7.2,1.9c2.2,1.3,3.9,3,5.1,5.1V62.4H305v40.3c0,1.2,0.2,2,0.7,2.5c0.4,0.5,1.2,0.7,2.3,0.8v9.9
				c-1.2,0.2-2.3,0.4-3.2,0.5c-0.9,0.1-1.7,0.1-2.5,0.1c-4.1-0.1-6.4-1.7-7-4.9l-0.2-2.1c-1.4,2.4-3.3,4.2-5.6,5.4
				C287.2,116.1,284.8,116.6,282.1,116.6z M285.3,106.7c1.6,0,3.2-0.5,4.6-1.4c1.5-1,2.6-2.3,3.4-3.9v-8.1c-0.7-1.9-1.9-3.5-3.6-4.8
				c-1.6-1.3-3.3-1.9-5.1-1.9c-1.3,0-2.4,0.3-3.5,0.8c-1,0.6-2,1.3-2.7,2.2c-0.8,0.9-1.4,2-1.8,3.2c-0.4,1.2-0.6,2.5-0.6,3.9
				c0,2.9,0.9,5.3,2.6,7.1C280.3,105.8,282.5,106.7,285.3,106.7z"/>
			<path fill="#231F20" d="M329.8,116.6c-1.6,0-3.3-0.1-5-0.4c-1.7-0.2-3.4-0.6-5.2-1c-1.7-0.4-3.3-0.9-4.9-1.5
				c-1.6-0.6-2.9-1.3-4.1-2l4.6-7.9c2.5,1.5,5,2.6,7.4,3.4c2.4,0.8,4.7,1.2,6.9,1.2c1.7,0,3-0.3,3.9-0.8c0.9-0.5,1.4-1.3,1.4-2.3
				c0-1-0.6-1.8-1.8-2.4c-1.2-0.6-3.3-1.2-6.3-2c-2.6-0.7-4.8-1.4-6.6-2.1c-1.8-0.7-3.3-1.4-4.4-2.3c-1.1-0.9-1.9-1.8-2.4-2.9
				c-0.5-1.1-0.7-2.3-0.7-3.8c0-1.9,0.4-3.7,1.2-5.4c0.8-1.6,1.9-3,3.3-4.1c1.4-1.1,3.1-2,5-2.6c1.9-0.6,4-1,6.3-1
				c2.7,0,5.4,0.4,8.3,1.2c2.8,0.8,5.5,1.9,8.2,3.3l-4.6,7.4c-2.4-1.3-4.5-2.3-6.4-2.9c-1.9-0.6-3.7-0.9-5.5-0.9
				c-1.5,0-2.7,0.3-3.6,0.8c-1,0.5-1.4,1.3-1.4,2.5c0,0.5,0.1,1,0.4,1.4c0.3,0.4,0.7,0.7,1.2,1c0.6,0.3,1.3,0.6,2.2,0.9
				c0.9,0.3,2.1,0.6,3.4,0.9c2.8,0.7,5.2,1.5,7.2,2.2c2,0.7,3.5,1.5,4.8,2.5c1.2,0.9,2.1,1.9,2.6,3.1c0.5,1.2,0.8,2.6,0.8,4.2
				c0,1.9-0.4,3.6-1.1,5.2c-0.8,1.5-1.8,2.9-3.3,3.9c-1.4,1.1-3.1,1.9-5.1,2.5C334.6,116.3,332.3,116.6,329.8,116.6z"/>
			<path fill="#231F20" d="M360.1,115.9l-13.6-38.5h12l8.4,29.1l8.5-29.1h11l-13.6,38.5H360.1z"/>
			<path fill="#231F20" d="M399.9,116.6c-1.9,0-3.7-0.3-5.3-0.9c-1.6-0.6-3-1.5-4.2-2.6c-1.2-1.1-2.1-2.4-2.8-3.9
				c-0.7-1.5-1-3.1-1-4.9c0-1.9,0.4-3.6,1.2-5.2c0.8-1.6,1.9-2.9,3.4-4c1.5-1.1,3.2-2,5.2-2.6c2-0.6,4.2-1,6.7-1
				c1.6,0,3.2,0.1,4.7,0.4c1.5,0.3,2.8,0.7,4,1.2v-1.8c0-4.4-2.6-6.7-7.7-6.7c-2.1,0-4.1,0.4-6,1.1c-1.9,0.7-3.9,1.8-6,3.2l-3.4-7.3
				c2.5-1.7,5.2-2.9,7.9-3.7c2.7-0.8,5.6-1.3,8.7-1.3c5.8,0,10.3,1.4,13.5,4.1c3.2,2.7,4.8,6.7,4.8,12v9.9c0,1.2,0.2,2,0.7,2.5
				c0.4,0.5,1.2,0.7,2.3,0.8v9.9c-1.1,0.2-2.2,0.4-3.1,0.5c-1,0.1-1.8,0.1-2.5,0.1c-2.1,0-3.8-0.5-4.9-1.3c-1.1-0.8-1.8-2-2.1-3.6
				l-0.2-1.8c-1.7,2.2-3.8,3.9-6.1,5C405,116.1,402.5,116.6,399.9,116.6z M403.3,108.2c1.3,0,2.5-0.2,3.7-0.7c1.2-0.4,2.2-1,3-1.8
				c1.1-0.9,1.7-1.8,1.7-2.8v-3.7c-1-0.4-2.1-0.7-3.3-0.9c-1.2-0.2-2.3-0.3-3.3-0.3c-2.2,0-3.9,0.5-5.3,1.5c-1.4,1-2.1,2.2-2.1,3.8
				c0,1.4,0.5,2.6,1.6,3.5C400.3,107.8,401.7,108.2,403.3,108.2z"/>
			<path fill="#231F20" d="M431.3,62.4H443v39.1c0,2.9,1.3,4.4,3.8,4.4c0.5,0,1.2-0.1,1.9-0.3c0.7-0.2,1.4-0.4,1.9-0.7l1.5,9.5
				c-1.5,0.7-3.1,1.2-5,1.6c-1.9,0.4-3.7,0.6-5.3,0.6c-3.4,0-6-0.9-7.8-2.6c-1.8-1.8-2.8-4.3-2.8-7.6V62.4z"/>
			<path fill="#231F20" d="M455.4,62.4h11.7v39.1c0,2.9,1.3,4.4,3.8,4.4c0.5,0,1.2-0.1,1.9-0.3c0.7-0.2,1.4-0.4,1.9-0.7l1.6,9.5
				c-1.5,0.7-3.2,1.2-5.1,1.6c-1.9,0.4-3.7,0.6-5.3,0.6c-3.4,0-6-0.9-7.8-2.6c-1.8-1.8-2.8-4.3-2.8-7.6V62.4z"/>
			<path fill="#231F20" d="M495.7,116.6c-1.6,0-3.3-0.1-5-0.4c-1.7-0.2-3.5-0.6-5.2-1c-1.7-0.4-3.3-0.9-4.9-1.5
				c-1.6-0.6-2.9-1.3-4.1-2l4.6-7.9c2.5,1.5,5,2.6,7.4,3.4c2.4,0.8,4.7,1.2,6.9,1.2c1.7,0,3-0.3,3.9-0.8c0.9-0.5,1.4-1.3,1.4-2.3
				c0-1-0.6-1.8-1.8-2.4c-1.2-0.6-3.3-1.2-6.3-2c-2.6-0.7-4.8-1.4-6.6-2.1c-1.8-0.7-3.3-1.4-4.4-2.3c-1.1-0.9-1.9-1.8-2.4-2.9
				c-0.5-1.1-0.7-2.3-0.7-3.8c0-1.9,0.4-3.7,1.2-5.4c0.8-1.6,1.9-3,3.3-4.1c1.4-1.1,3.1-2,5-2.6c1.9-0.6,4-1,6.3-1
				c2.7,0,5.4,0.4,8.2,1.2c2.8,0.8,5.6,1.9,8.3,3.3l-4.6,7.4c-2.4-1.3-4.5-2.3-6.4-2.9c-1.9-0.6-3.7-0.9-5.5-0.9
				c-1.5,0-2.7,0.3-3.6,0.8c-1,0.5-1.4,1.3-1.4,2.5c0,0.5,0.1,1,0.4,1.4c0.2,0.4,0.6,0.7,1.2,1c0.6,0.3,1.3,0.6,2.2,0.9
				c0.9,0.3,2.1,0.6,3.4,0.9c2.8,0.7,5.2,1.5,7.2,2.2c2,0.7,3.5,1.5,4.8,2.5c1.2,0.9,2.1,1.9,2.6,3.1c0.5,1.2,0.8,2.6,0.8,4.2
				c0,1.9-0.4,3.6-1.1,5.2c-0.7,1.5-1.8,2.9-3.3,3.9c-1.4,1.1-3.1,1.9-5.1,2.5C500.5,116.3,498.2,116.6,495.7,116.6z"/>
			<path fill="#231F20" d="M158.3,181.8l-10-15.5l-4.1,4.3v11.2h-11.7v-53.5h11.7v31l13-16h12.5l-13.9,16.6l15,21.9H158.3z"/>
			<path fill="#231F20" d="M189.8,182.6c-3.3,0-6.2-0.5-8.8-1.6c-2.5-1.1-4.7-2.5-6.5-4.4c-1.8-1.8-3.1-4-4-6.4
				c-0.9-2.4-1.4-4.9-1.4-7.6c0-2.6,0.5-5.2,1.4-7.6c0.9-2.4,2.2-4.5,4-6.4c1.8-1.8,3.9-3.3,6.5-4.4c2.6-1.1,5.5-1.6,8.8-1.6
				c3.3,0,6.2,0.6,8.7,1.6c2.6,1.1,4.7,2.6,6.5,4.4c1.8,1.8,3.1,4,4,6.4c0.9,2.4,1.4,4.9,1.4,7.6c0,2.6-0.5,5.2-1.4,7.6
				c-0.9,2.4-2.2,4.5-4,6.4c-1.8,1.8-3.9,3.3-6.5,4.4C196,182,193.1,182.6,189.8,182.6z M181.2,162.7c0,3,0.8,5.4,2.4,7.3
				c1.6,1.8,3.7,2.7,6.2,2.7c1.2,0,2.3-0.2,3.4-0.7c1-0.5,1.9-1.2,2.7-2c0.7-0.9,1.4-2,1.8-3.2c0.5-1.2,0.7-2.6,0.7-4.1
				c0-3-0.8-5.5-2.4-7.3c-1.6-1.8-3.6-2.8-6.1-2.8c-1.2,0-2.4,0.2-3.4,0.7c-1,0.5-2,1.2-2.7,2.1c-0.8,0.9-1.4,1.9-1.8,3.2
				C181.4,159.8,181.2,161.2,181.2,162.7z"/>
			<path fill="#231F20" d="M276.1,181.8h-11.7v-21.6c0-2.5-0.5-4.4-1.4-5.5c-0.9-1.2-2.1-1.7-3.6-1.7c-1.6,0-3.1,0.6-4.6,1.9
				c-1.5,1.3-2.6,2.9-3.2,4.9v22h-11.7v-21.6c0-2.5-0.5-4.4-1.4-5.5c-0.9-1.2-2.1-1.7-3.6-1.7c-1.6,0-3.1,0.6-4.6,1.9
				c-1.5,1.3-2.6,2.9-3.3,5v22h-11.7v-38.5h10.6v6.4c1.4-2.3,3.3-4.1,5.8-5.4c2.4-1.2,5.3-1.8,8.5-1.8c1.6,0,3,0.2,4.2,0.6
				c1.2,0.4,2.3,0.9,3.1,1.6c0.9,0.7,1.6,1.5,2.1,2.4c0.6,0.9,1,1.9,1.2,2.9c1.4-2.4,3.3-4.2,5.7-5.5c2.4-1.3,5.1-1.9,8.2-1.9
				c2.5,0,4.4,0.5,5.9,1.4c1.5,0.9,2.7,2.1,3.5,3.5c0.8,1.4,1.4,3,1.6,4.7c0.3,1.7,0.4,3.4,0.4,5V181.8z"/>
			<path fill="#231F20" d="M343.8,181.8h-11.7v-21.6c0-2.5-0.5-4.4-1.4-5.5c-0.9-1.2-2.1-1.7-3.6-1.7c-1.6,0-3.1,0.6-4.6,1.9
				c-1.5,1.3-2.6,2.9-3.3,4.9v22h-11.7v-21.6c0-2.5-0.4-4.4-1.3-5.5c-0.9-1.2-2.1-1.7-3.6-1.7c-1.6,0-3.1,0.6-4.6,1.9
				c-1.5,1.3-2.6,2.9-3.3,5v22H283v-38.5h10.6v6.4c1.4-2.3,3.4-4.1,5.8-5.4c2.4-1.2,5.3-1.8,8.5-1.8c1.6,0,3,0.2,4.2,0.6
				c1.2,0.4,2.2,0.9,3.1,1.6c0.9,0.7,1.6,1.5,2.1,2.4c0.6,0.9,1,1.9,1.2,2.9c1.4-2.4,3.3-4.2,5.7-5.5c2.4-1.3,5.1-1.9,8.2-1.9
				c2.4,0,4.4,0.5,5.9,1.4c1.5,0.9,2.7,2.1,3.5,3.5c0.8,1.4,1.4,3,1.7,4.7c0.3,1.7,0.4,3.4,0.4,5V181.8z"/>
			<path fill="#231F20" d="M362.4,182.6c-3.9,0-6.9-1.2-8.9-3.7c-2-2.5-3.1-6.1-3.1-10.9v-24.6h11.7v22c0,2.3,0.5,4.1,1.4,5.4
				c0.9,1.2,2.2,1.9,4,1.9c1.6,0,3.1-0.4,4.6-1.2c1.5-0.8,2.8-2.3,3.9-4.3v-23.8h11.7v25.3c0,1.2,0.2,2,0.7,2.5
				c0.4,0.5,1.2,0.7,2.3,0.8v9.9c-1.2,0.2-2.3,0.4-3.2,0.5c-0.9,0.1-1.7,0.1-2.4,0.1c-4.1-0.1-6.5-1.7-7.1-4.9l-0.2-2.3
				c-1.8,2.5-3.9,4.4-6.6,5.6C368.6,182,365.7,182.6,362.4,182.6z"/>
			<path fill="#231F20" d="M433.5,181.8h-11.7v-21.6c0-2.5-0.5-4.4-1.4-5.5c-0.9-1.2-2.2-1.7-3.8-1.7c-0.8,0-1.7,0.2-2.5,0.5
				c-0.9,0.3-1.7,0.8-2.4,1.4c-0.8,0.6-1.5,1.3-2.1,2.2c-0.6,0.8-1.1,1.7-1.5,2.7v22h-11.7v-38.5h10.6v6.4c1.4-2.3,3.4-4.1,6-5.3
				c2.6-1.2,5.6-1.9,8.9-1.9c2.5,0,4.5,0.5,6,1.4c1.5,0.9,2.7,2.1,3.6,3.5c0.8,1.4,1.4,3,1.6,4.7c0.3,1.7,0.4,3.4,0.4,5V181.8z"/>
		</g>
	</g>
</g>
</svg>
