<?xml version="1.0" encoding="utf-8"?>
<!-- Generator: Adobe Illustrator 18.1.0, SVG Export Plug-In . SVG Version: 6.00 Build 0)  -->
<!DOCTYPE svg PUBLIC "-//W3C//DTD SVG 1.1//EN" "http://www.w3.org/Graphics/SVG/1.1/DTD/svg11.dtd">
<svg version="1.1" id="Layer_1" xmlns="http://www.w3.org/2000/svg" xmlns:xlink="http://www.w3.org/1999/xlink" x="0px" y="0px"
	 width="108.6px" height="648.3px" viewBox="-243 204.6 108.6 648.3" enable-background="new -243 204.6 108.6 648.3"
	 xml:space="preserve">
<g>
	<g>
		<g>
			<path fill="#008A00" d="M-155.3,420.8h-66.8c-11.4,0-20.6-9.2-20.6-20.6v-66.9c0-11.4,9.2-20.6,20.6-20.6h66.9
				c11.4,0,20.6,9.2,20.6,20.6v66.9C-134.7,411.6-143.9,420.8-155.3,420.8z"/>
		</g>
		<path fill="#FFFFFF" d="M-191.2,397.7c-1.2,0-2.4-0.3-3.4-1l-29.8-19.8c-2.9-1.9-3.7-5.9-1.8-8.8c1.9-2.9,5.8-3.8,8.7-1.8
			l24.8,16.5l31.2-44.2c2-2.8,5.9-3.5,8.8-1.5c2.8,2,3.5,6,1.4,8.9l-34.8,49C-187.3,396.7-189.2,397.7-191.2,397.7z"/>
	</g>
	<g>
		<g>
			<path fill="#E9E9E9" d="M-155.3,528.7h-66.8c-11.4,0-20.6-9.2-20.6-20.6v-66.9c0-11.4,9.2-20.6,20.6-20.6h66.9
				c11.4,0,20.6,9.2,20.6,20.6v66.9C-134.7,519.5-143.9,528.7-155.3,528.7z"/>
		</g>
		<path fill="#B6C0C6" d="M-191.2,505.6c-1.2,0-2.4-0.3-3.4-1l-29.8-19.8c-2.9-1.9-3.7-5.9-1.8-8.8c1.9-2.9,5.8-3.8,8.7-1.8
			l24.7,16.4l31.3-44.1c2-2.8,5.9-3.5,8.8-1.5c2.8,2,3.5,6,1.4,8.9l-34.8,49C-187.3,504.7-189.2,505.6-191.2,505.6z"/>
	</g>
	<g>
		<g>
			<path fill="#E9E9E9" d="M-155.3,636.7h-66.8c-11.4,0-20.6-9.2-20.6-20.6v-66.9c0-11.4,9.2-20.6,20.6-20.6h66.9
				c11.4,0,20.6,9.2,20.6,20.6v66.9C-134.7,627.5-143.9,636.7-155.3,636.7z"/>
		</g>
	</g>
	<g>
		<g>
			<path fill="#FFFFFF" d="M-156.3,309h-63.3c-10.8,0-19.5-8.7-19.5-19.5v-63.4c0-10.8,8.7-19.5,19.5-19.5h63.4
				c10.8,0,19.5,8.7,19.5,19.5v63.4C-136.8,300.2-145.5,309-156.3,309z"/>
		</g>
	</g>
	<g>
		<g>
			<path fill="#C8C8C8" d="M-155.1,209.4c8.6,0,15.5,7,15.5,15.5v67.2c0,8.5-7,15.5-15.5,15.5h-67.2c-8.6,0-15.5-7-15.5-15.5v-67.2
				c0-8.6,7-15.5,15.5-15.5H-155.1 M-155.1,204.2h-67.2c-11.4,0-20.7,9.3-20.7,20.7v67.2c0,11.4,9.3,20.7,20.7,20.7h67.2
				c11.4,0,20.7-9.3,20.7-20.7v-67.2C-134.4,213.5-143.7,204.2-155.1,204.2L-155.1,204.2z"/>
		</g>
	</g>
	<g>
		<g>
			<path fill="#008A00" d="M-155.5,744.8h-66.8c-11.4,0-20.6-9.2-20.6-20.6v-66.9c0-11.4,9.2-20.6,20.6-20.6h66.9
				c11.4,0,20.6,9.2,20.6,20.6v66.9C-134.9,735.6-144.1,744.8-155.5,744.8z"/>
		</g>
		<path fill="#FFFFFF" d="M-146.8,690.8c0,3.8-3.1,6.9-6.9,6.9h-66.8c-3.8,0-6.9-3.1-6.9-6.9l0,0c0-3.8,3.1-6.9,6.9-6.9h66.8
			C-149.9,683.9-146.8,687-146.8,690.8L-146.8,690.8z"/>
	</g>
	<g>
		<g>
			<path fill="#E9E9E9" d="M-155.3,852.9h-66.8c-11.4,0-20.6-9.2-20.6-20.6v-66.9c0-11.4,9.2-20.6,20.6-20.6h66.9
				c11.4,0,20.6,9.2,20.6,20.6v66.9C-134.7,843.7-143.9,852.9-155.3,852.9z"/>
		</g>
		<path fill="#B6C0C6" d="M-146.6,798.9c0,3.8-3.1,6.9-6.9,6.9h-66.8c-3.8,0-6.9-3.1-6.9-6.9l0,0c0-3.8,3.1-6.9,6.9-6.9h66.8
			C-149.7,792-146.6,795.1-146.6,798.9L-146.6,798.9z"/>
	</g>
</g>
</svg>
