<svg version="1.1" xmlns="http://www.w3.org/2000/svg" xmlns:xlink="http://www.w3.org/1999/xlink" style="display: none">
	<symbol id="default">
		<rect x="257" fill="#cc0000" width="256" height="256"/>
		<rect x="2" y="256" width="256" height="256"/>
		<rect x="1" width="256" height="256"/>
		<rect x="257" y="256" width="256" height="256"/>
	</symbol>

	<symbol id="arrow-right">
		<title>Pil höger</title>
		<path d="M166.8,0.5L92.9,81.8l172.9,171.1L92.9,433.3l75.9,79.2l249.8-260.7l-1-1l1-1.1L166.8,0.5z"/>
	</symbol>

	<symbol id="arrow-left">
		<title>Pil vänster</title>
		<path d="M92.9,249.7l1,1.1l-1,1l249.8,260.7l75.9-79.2L245.7,252.9L418.6,81.8L344.7,0.5L92.9,249.7z"/>
	</symbol>

	<symbol id="arrow-down">
		<title>Pil ned</title>
		<polygon points="512,167.1 430.7,93.3 259.6,266 79.2,93.3 0,169.1 260.7,418.7 261.7,417.7 262.8,418.7 "/>
	</symbol>

	<symbol id="arrow-up">
		<title>Pil up</title>
		<polygon points="0,344.9 81.3,418.7 252.4,246 432.8,418.7 512,342.9 251.3,93.3 250.3,94.3 249.2,93.3 "/>
	</symbol>

	<symbol id="arrow-alt-up">
		<polygon points="489.225,232.23 256.505,-0.5 23.775,232.23 
			116.865,232.23 209.955,139.14 209.955,511.5 303.045,511.5 303.045,138.769 397.238,232.23"/>
	</symbol>

	<symbol id="arrow-alt-right">
		<polygon points="512,256.005 279.27,23.275 279.27,116.365 372.36,209.455 0,209.455 0,302.545 372.731,302.545 
	279.27,396.738 279.27,488.725 "/>
	</symbol>

	<symbol id="arrow-alt-down">
		<polygon points="255.995,512 488.725,279.27 395.635,279.27 302.545,372.36 302.545,0 209.455,0 209.455,372.731 
	115.262,279.27 23.275,279.27 "/>
	</symbol>

	<symbol id="calendar">
		<title>Kaldender</title>
		<path d="M472.6,157.5v315.1H39.4V157.5H472.6 M512,118.2H0V512h512V118.2L512,118.2z"/>
		<rect x="118.2" y="157.5" width="39.4" height="315.1"/>
		<rect x="236.3" y="157.5" width="39.4" height="315.1"/>
		<rect x="354.5" y="157.5" width="39.4" height="315.1"/>
		<rect y="236.3" width="472.6" height="39.4"/>
		<rect y="354.5" width="472.6" height="39.4"/>
		<rect x="157.5" y="275.7" width="78.8" height="78.8"/>
		<path d="M512,39.4c0,21.8,0,39.4,0,39.4H0c0,0,0-17.6,0-39.4l0,0C0,17.6,17.6,0,39.4,0h433.2
			C494.4,0,512,17.6,512,39.4L512,39.4z"/>
		<rect y="118.2" width="39.4" height="393.8"/>
	</symbol>

	<symbol id="close">
		<title>Stäng</title>
		<polygon points="93.1,0 0,93.1 166.6,256.6 0,418.9 93.1,512 254.1,342.5 338.9,256.3"/>
		<polygon points="512,93.1 418.9,0 173.1,256.3 257.9,342.5 418.9,512 512,418.9 345.4,256.6"/>
	</symbol>

	<symbol id="chain">
		<path d="M244.285,314.668c-6.212,6.212-7.272,15.629-3.172,22.933L107.216,471.498l-66.714-66.714l133.897-133.897
			c7.304,4.099,16.721,3.039,22.933-3.172c7.497-7.497,7.49-19.635,0-27.125c-12.926-12.926-33.959-12.926-46.88-0.006
			L9.695,381.341c-12.927,12.927-12.926,33.959,0,46.886l74.078,74.078c12.926,12.926,33.959,12.927,46.886,0l140.757-140.757
			c12.92-12.92,12.92-33.953-0.006-46.88C263.92,307.178,251.782,307.171,244.285,314.668z"/>
		<path d="M381.347,9.689L240.589,150.447c-12.926,12.926-12.926,33.959,0,46.886c7.49,7.49,19.635,7.49,27.125,0
			c6.212-6.212,7.278-15.636,3.179-22.94l133.89-133.89l66.714,66.714l-133.89,133.89c-7.304-4.099-16.728-3.033-22.94,3.179
			c-7.49,7.49-7.49,19.635,0,27.125c12.926,12.926,33.959,12.926,46.886,0l140.758-140.758c12.92-12.92,12.92-33.952-0.007-46.879
			L428.226,9.696C415.3-3.231,394.267-3.231,381.347,9.689z"/>
		<path d="M130.102,381.898c7.49,7.49,19.642,7.483,27.125,0L380.625,158.5c7.497-7.497,7.49-19.635,0-27.125
			c-7.489-7.489-19.629-7.497-27.125,0L130.102,354.772C122.619,362.256,122.613,374.408,130.102,381.898z"/>
	</symbol>

	<symbol id="checkmark">
		<path fill-rule="evenodd" clip-rule="evenodd" d="M504.2,115.8L273.3,441.3c-8.1,11.4-20.8,17.5-33.8,17.5
			c-7.8,0-15.8-2.2-22.8-6.9l-198-131.6c-19.2-12.8-24.6-38.9-12-58.3c12.6-19.4,38.4-24.9,57.6-12.1L229,359.3L436.6,66.7
			c13.4-18.9,39.4-23.2,58-9.6C513.3,70.6,517.6,96.9,504.2,115.8z"/>
	</symbol>

	<symbol id="download">
		<title>Ladda ned</title>
		<path d="M389.9,208.4h-76.6V97.1c0-26-15.4-47.1-34.4-47.1h-45.8c-19,0-34.4,21.1-34.4,47.1v111.3h-76.1
			c-21.3,0-16.8,18,1.5,36.9l113.1,121.4c15.3,15.9,20.8,18,38.2,0l113.7-121.4C407.3,226.4,409.2,208.4,389.9,208.4z M46,422.4
			v39.6h420v-39.6H46z"/>
	</symbol>

	<symbol id="edit">
		<title>Redigera</title>
		<rect x="0.7" y="465.1" width="510.6" height="46.4"/>
			<rect x="273.2" y="-18.6" transform="matrix(0.7071 0.7071 -0.7071 0.7071 224.4124 -180.5639)" width="113.8" height="398.5"/>
		<polygon points="189.3,402 92.1,418.7 108.8,321.5 	"/>
	</symbol>

	<symbol id="error">
		<title>Fel</title>
		<path d="M256,0L0,465.5L0,512l512,0v-46.5L256,0z M279.3,465.5h-46.5v-46.5h46.5V465.5z M279.3,372.4h-46.5V186.2
			h46.5V372.4z"/>
	</symbol>

	<symbol id="external">
		<polygon points="418.614,465.455 46.25,465.455 46.25,92.5 185.886,92.5 185.886,46.546 0.296,46.546 0.296,512 
			465.159,512 465.159,325.818 418.614,325.818 	"/>
		<polygon points="278.977,0 278.977,78.271 378.003,78.271 217.318,238.955 272.703,294.34 433.387,133.64 
			433.387,232.727 511.704,232.727 511.704,0 	"/>
	</symbol>

	<symbol id="eye">
		<path d="M260.6,86.1c-1.5,0-3-0.1-4.6-0.1c-1.6,0-3,0-4.6,0.1C112.2,89.6,0,256,0,256s112.2,166.4,251.4,169.9c1.5,0,3,0.1,4.6,0.1
			c1.6,0,3,0,4.6-0.1C399.8,422.4,512,256,512,256S399.8,89.6,260.6,86.1z M408.3,309.5c-23.6,21.6-47.3,38.9-70.6,51.2
			c-27.1,14.4-53.4,22-78.2,22.6l-1,0l-0.9,0.1c-0.3,0-1,0-1.6,0c-0.3,0-0.6,0-0.8,0c-0.8,0-1.9-0.1-3.1-0.1
			c-24.7-0.7-50.9-8.3-77.8-22.6c-23.3-12.3-47-29.5-70.6-51.2c-21.1-19.4-38.4-38.9-50.3-53.5c11.9-14.6,29.1-34.1,50.3-53.5
			c23.6-21.6,47.3-38.9,70.6-51.2c27.1-14.4,53.4-22,78.2-22.6l1,0l0.9-0.1c0.3,0,1,0,1.6,0c0.3,0,0.6,0,0.8,0c0.8,0,1.9,0.1,3.1,0.1
			c24.7,0.7,50.9,8.3,77.8,22.6c23.3,12.3,47,29.5,70.6,51.2c21.1,19.4,38.4,38.9,50.3,53.5C446.7,270.6,429.4,290.1,408.3,309.5z"/>
		<path d="M256,183.7c-10.4,0-20.4,2.2-29.6,6.3c0.5,0.4,0.9,0.8,1.3,1.2c4.9,4.9,7.5,11.3,7.5,18.2s-2.7,13.3-7.5,18.2
			c-4.9,4.9-11.3,7.5-18.2,7.5s-13.3-2.7-18.2-7.5c-0.4-0.4-0.8-0.9-1.2-1.3c-4.1,9.2-6.3,19.2-6.3,29.6c0,19.3,7.5,37.5,21.1,51.1
			c13.7,13.6,31.8,21.1,51.1,21.1s37.5-7.5,51.1-21.1c13.6-13.7,21.1-31.8,21.1-51.1s-7.5-37.5-21.1-51.1
			C293.5,191.3,275.3,183.7,256,183.7z"/>
	</symbol>

	<symbol id="facebook">
		<path d="M460.8,0H51.198C22.933,0,0,22.922,0,51.198v409.605
			C0,489.067,22.933,512,51.198,512H460.8c28.265,0,51.2-22.933,51.2-51.198V51.198C512,22.922,489.065,0,460.8,0z M438.864,184.681
			l-4.842,63.007h-64.624v218.963H287.75V247.689h-43.567v-63.007h43.567v-19.767v-19.36v-3.233c0-18.638,0.485-47.439,14.038-65.268
			c14.281-18.88,33.886-31.703,67.61-31.703c54.943,0,78.099,7.819,78.099,7.819l-10.894,64.546c0,0-18.153-5.246-35.093-5.246
			c-16.943,0-32.113,6.054-32.113,22.992v6.86v22.593v19.767H438.864z"/>
	</symbol>

	<symbol id="file">
		<path d="M349.108,0h-61.116H93.003C67.341,0,46.54,20.801,46.54,46.463v419.074C46.54,491.196,67.341,512,93.003,512
			h325.994c25.662,0,46.463-20.804,46.463-46.463V162.901v-23.264L349.108,0z M93.085,465.537L93.003,46.545h194.989h0.003v130.733
			h130.923l0.08,288.176L93.085,465.537z"/>
	</symbol>

	<symbol id="folder-open">
		<path d="M478.054,217.506H100.332c-15.193,0-28.534,9.933-32.652,24.316L0,478.047h448.215l62.494-218.123
			C516.805,238.635,500.54,217.506,478.054,217.506z M72.072,180.799h376.147v-40.056c0-18.431-15.189-33.369-33.923-33.369H273.442
			c-15.097,0-28.9-8.395-35.65-21.673l-15.285-30.079c-6.754-13.282-20.557-21.669-35.653-21.669H0v308.763l39.42-137.601
			C43.538,190.732,56.883,180.799,72.072,180.799z"/>
	</symbol>

	<symbol id="cog">
		<path d="M512,287.5v-64l-76.2-12.4c-4.5-18-11.6-35-20.9-50.5l44.4-63.3L414,52l-62.4,44.9
			c-15.6-9.4-32.6-16.6-50.8-21.1L287.5,0h-64l-12.3,75.6c-18.2,4.5-35.3,11.6-51,20.9L97.9,52L52.7,97.2l43.8,62.6
			C87,175.6,79.8,192.7,75.2,211L0,223.5v64l75.1,13.3c4.5,18.3,11.8,35.4,21.2,51.2L52,414l45.3,45.3l62.7-43.9
			c15.7,9.4,32.8,16.5,51,21l12.6,75.6h64l13.4-75.8c18.1-4.6,35.2-11.8,50.7-21.2l63.2,44.3L460,414l-45.1-62.6
			c9.3-15.6,16.4-32.5,20.9-50.6L512,287.5z M256,372.2c-64.3,0-116.4-52-116.4-116.2c0-64.2,52.1-116.2,116.4-116.2
			c64.3,0,116.4,52,116.4,116.2C372.4,320.2,320.3,372.2,256,372.2z"></path>
	</symbol>

	<symbol id="grid">
		<path d="M171.2,277.7H61.9c-34.8,0-63,28.2-63,63V449c0,34.8,28.2,63,63,63h109.3c34.8,0,63-28.2,63-63V340.7
			C234.2,305.9,206,277.7,171.2,277.7z"/>
		<path d="M450.1,277.7H340.8c-34.8,0-63,28.2-63,63V449c0,34.8,28.2,63,63,63h109.3c34.8,0,63-28.2,63-63V340.7
			C513.1,305.9,484.9,277.7,450.1,277.7z"/>
		<path d="M171.2,0H61.9c-34.8,0-63,28.2-63,63v108.3c0,34.8,28.2,63,63,63h109.3c34.8,0,63-28.2,63-63V63C234.2,28.2,206,0,171.2,0z
			"/>
		<path d="M450.1,0H340.8c-34.8,0-63,28.2-63,63v108.3c0,34.8,28.2,63,63,63h109.3c34.8,0,63-28.2,63-63V63
			C513.1,28.2,484.9,0,450.1,0z"/>
	</symbol>

	<symbol id="group">
		<path d="M106.7,419.7v-63.2c0-46.8,36.4-55.1,68.6-62.5c9.8-2.2,20-4.5,29.8-8c2.3-0.9,7.2-4.2,4-14
			c-23.7-24.2-38.4-59.4-38.4-92.6c0-60.2,43-87.1,85.6-87.1c50.5,0,85.8,35.8,85.8,87.1c0,32.3-14.8,68.1-38,92.1
			c-2.5,8.5-1.3,13.5,1.1,14.5c9.7,3.1,19.8,5.3,29.6,7.4c33.6,7.3,71.7,15.6,71.7,63.1v63.2H106.7z"/>
		<g>
			<path d="M165.6,276.8c4-0.9,8-2.1,12-3.1c-11.2-12.2-34-12.8-55.1-19.5c-1.3-0.4-9.8-4.1-4.5-19.6h-0.1
				c13.8-13.6,24.4-35.7,24.4-57.3c0-33.3-23.1-50.7-49.9-50.7c-26.8,0-49.8,17.4-49.8,50.7c0,21.7,10.5,43.8,24.4,57.4
				c5.4,13.6-4.3,18.7-6.3,19.4c-28.1,9.7-60.4,6.6-60.4,40.1V341h83.4C91.3,294.2,133.6,284.1,165.6,276.8z"/>
			<path d="M450,254.1c-1.3-0.4-9.8-4.1-4.5-19.6h-0.1c13.8-13.6,24.4-35.7,24.4-57.3c0-33.3-23.1-50.7-49.9-50.7
				c-26.8,0-49.8,17.4-49.8,50.7c0,21.7,10.5,43.8,24.4,57.4c5.4,13.6-4.3,18.7-6.3,19.4c-20.3,7-42.6,7.5-53.5,19.7
				c3.1,0.7,6.3,1.6,9.4,2.2c33.4,7.3,77.6,17.4,85.3,64.9h82.8v-46.7C512.3,260.7,479.5,263.5,450,254.1z"/>
		</g>
	</symbol>

	<symbol id="help">
		<circle fill="#424242" cx="251.1" cy="372.4" r="33.1"/>
		<path fill="#424242" d="M280.6,307.8h-67.5c-10.5-73.6,66-66.9,66-107.2c0-22-14.2-33.9-35.1-33.9c-19.4,0-33.5,10.2-47.6,24.7
			l-42.4-39.8c23.5-29,56.5-48.9,95.3-48.9c59.2,0,103.7,28.5,103.7,91.9C352.9,261.3,274.3,243.8,280.6,307.8z"/>
		<path fill="#424242" d="M256,40.9c118.6,0,215.1,96.5,215.1,215.1S374.6,471.1,256,471.1S40.9,374.6,40.9,256S137.4,40.9,256,40.9
			 M256,0C114.6,0,0,114.6,0,256s114.6,256,256,256s256-114.6,256-256S397.4,0,256,0L256,0z"/>
	</symbol>

	<symbol id="hidden">
		<path d="M389.9,133.2l70.5-85.4L421.8,16L346,107.8c-26.7-12.6-55.4-20.9-85.4-21.7c-1.5,0-3-0.1-4.6-0.1c-1.6,0-3,0-4.6,0.1
			C112.2,89.6,0,256,0,256s49,72.6,122.3,122.9l-70.7,85.7l38.6,31.8l76-92.1c26.6,12.5,55.3,20.8,85.2,21.6c1.5,0,3,0.1,4.6,0.1
			c1.6,0,3,0,4.6-0.1C399.8,422.4,512,256,512,256S463.1,183.5,389.9,133.2z M103.7,309.5c-21.1-19.4-38.4-38.9-50.3-53.5
			c11.9-14.6,29.1-34.1,50.3-53.5c23.6-21.6,47.3-38.9,70.6-51.2c27.1-14.4,53.4-22,78.2-22.6h1l0.9-0.1c0.3,0,1,0,1.6,0
			c0.3,0,0.6,0,0.8,0c0.8,0,1.9,0.1,3.1,0.1c18.6,0.5,38,5,58,13.2L280,187.8c-7.6-2.7-15.7-4.1-24-4.1c-10.4,0-20.4,2.2-29.6,6.3
			c0.5,0.4,0.9,0.8,1.3,1.2c4.9,4.9,7.5,11.3,7.5,18.2c0,6.9-2.7,13.3-7.5,18.2c-4.9,4.9-11.3,7.5-18.2,7.5c-6.9,0-13.3-2.7-18.2-7.5
			c-0.4-0.4-0.8-0.9-1.2-1.3c-4.1,9.2-6.3,19.2-6.3,29.6c0,13.1,3.4,25.6,9.9,36.6l-44.1,53.4C134.3,335.7,119,323.6,103.7,309.5z
			 M408.3,309.5c-23.6,21.6-47.3,38.9-70.6,51.2c-27.1,14.4-53.4,22-78.2,22.6h-1l-0.9,0.1c-0.3,0-1,0-1.6,0c-0.3,0-0.6,0-0.8,0
			c-0.8,0-1.9-0.1-3.1-0.1c-18.5-0.5-37.9-4.9-57.7-13.1l38-46c7.5,2.6,15.5,4,23.7,4c19.3,0,37.5-7.5,51.1-21.1
			c13.6-13.7,21.1-31.8,21.1-51.1c0-12.9-3.4-25.3-9.7-36.2l44.1-53.5c15.2,10.1,30.4,22.3,45.7,36.3c21.1,19.4,38.4,38.9,50.3,53.5
			C446.7,270.6,429.4,290.1,408.3,309.5z"/>
	</symbol>

	<symbol id="house">
		<path d="M369.8,440.9H142.2V298.7H85.3v199.1h341.3V298.7h-56.9V440.9z M256,14.2L0,240.9l33.7,38.9L256,83
			l222.3,196.8l33.7-38.9L256,14.2z"/>
	</symbol>

	<symbol id="info">
		<path d="M256.87,494.675c16.843-1.686,31.157-10.117,42.099-23.587l12.628,10.117
			c-16,19.354-37.883,30.296-63.157,30.296c-52.197,0-80.825-29.453-80.825-69.865c0-26.099,7.587-56.412,13.471-91.784
			l29.957-142.387h-35.354l1.686-15.157h36.197c64.825,0,103.569-7.587,103.569-7.587L256.87,494.675z M282.612-0.5
			c33.686,0,61.471,27.785,61.471,61.453c0,33.686-27.785,60.628-61.471,60.628c-33.668,0-60.61-26.942-60.61-60.628
			C222.003,27.285,248.944-0.5,282.612-0.5z"/>
	</symbol>

	<symbol id="list">
		<path d="M46.5,25.6C20.8,25.6,0,46.2,0,71.7c0,25.4,20.8,46.1,46.5,46.1c25.7,0,46.5-20.6,46.5-46.1
			C93.1,46.2,72.2,25.6,46.5,25.6z M46.5,209.9C20.8,209.9,0,230.5,0,256c0,25.5,20.8,46.1,46.5,46.1c25.7,0,46.5-20.6,46.5-46.1
			C93.1,230.5,72.2,209.9,46.5,209.9z M46.5,394.2C20.8,394.2,0,414.9,0,440.3c0,25.5,20.8,46.1,46.5,46.1
			c25.7,0,46.5-20.6,46.5-46.1C93.1,414.9,72.2,394.2,46.5,394.2z M192.8,117.8h266c29.4,0,53.2-20.6,53.2-46.1
			c0-25.4-23.8-46.1-53.2-46.1h-266c-29.4,0-53.2,20.6-53.2,46.1C139.6,97.1,163.4,117.8,192.8,117.8z M458.8,209.9h-266
			c-29.4,0-53.2,20.6-53.2,46.1c0,25.5,23.8,46.1,53.2,46.1h266c29.4,0,53.2-20.6,53.2-46.1C512,230.5,488.2,209.9,458.8,209.9z
			 M458.8,394.2h-266c-29.4,0-53.2,20.6-53.2,46.1c0,25.5,23.8,46.1,53.2,46.1h266c29.4,0,53.2-20.6,53.2-46.1
			C512,414.9,488.2,394.2,458.8,394.2z"/>
	</symbol>

	<symbol id="lock">
		<path d="M432,232h-32v-88C400,64.8,335.2,0,256,0S112,64.8,112,144v88H80c-8.8,0-16,7.2-16,16v248c0,8.8,7.2,16,16,16h352
			c8.8,0,16-7.2,16-16V248C448,239.2,440.8,232,432,232z M160,144c0-52.8,43.2-96,96-96s96,43.2,96,96v88H160V144z M296,448h-80
			l22.4-68c-12.8-6.4-22.4-20-22.4-36c0-22.4,17.6-40,40-40s40,17.6,40,40c0,16-9.6,29.6-22.4,36L296,448z"/>
	</symbol>

	<symbol id="logo">
		<path d="M150.6,180.3l-39.1,13.6C50,217.2,8.2,283.2,1.8,346.3c-5.8,70.5,31.7,131.8,92.6,164
			c1.1,0.6,2.3,1.1,3.4,1.7h279.1c-58.4-57.1-160.8-56.2-233.1-89.8c-30.7-12.3-62-42.7-62.3-79.2c-0.4-37.9,14.7-68.5,45.7-90
			c12.4-8.1,26.2-8.9,26.2-8.9c-25.1,26.3-40.6,56.4-36.3,94.8c3.3,30.9,29.9,60.9,59.2,69.8c28.9,8,54.7-3.7,76.1-20.3l-2.5-13.2
			c-12.3,3.4-28.7,3.5-41.2,0.3c-25.8-9.3-35.3-35-33.2-61.1c2.1-11.2,11-19,23.7-15.6c63.5,26.5,52,111.9,112.1,141.9
			c20,7.4,38.7,0.7,51.3-8.2c31.4-22.4,42.7-51.8,51.3-87.4c-16.9,19.3-32.3,39.9-57.2,44.6c-12.4,2.8-18.9,0.2-26.2-10.9
			c-24.5-39.4-32.3-105.3-90-111.2c-11.1,0.2-14.2-1-34.8,2.4c14.6-12.1,32.3-24,52-24.3c28.9-1,58.4,18.9,69.8,38.9
			c5.8,10.9,3.9,29-3.9,39.5l13.2,10c21.8-28.3,68.2-64.5,67.8-88.4c-3.8-46.6-73.4-74.7-114.5-91.3c0,0,7.1-18.5,3.5-32
			c-8-18.6-24.9-21.4-41.4-26.1c-30-8.6-78.4-12.5-100.4-32.2c-22.2-20-11.9-41.3-6.6-63.8C87.5,62.6,84.5,70.8,84.5,70.8
			S67.2,101.7,98,110.5c38.9,9.8,80.7,16.1,119.8,31.9c11,4.1-1,14.6-8.3,14.4C142,138,77.5,114.6,0,117.8c17.3,21.1,43,50,48.6,78.7
			C75.6,174.7,117.6,162.6,150.6,180.3z M265.8,168.4c6.8,3.4,14,10.8,17.4,17.4l-62.9-10.3C232.6,166.5,251.1,159.1,265.8,168.4z"/>
	</symbol>

	<symbol id="logo-full">
		<path fill-rule="evenodd" clip-rule="evenodd" d="M403.9,25.3c-1.9-0.7-3.7-2.6-3.8-4.8c0-2.3,0.9-4.1,2.8-5.4
			c0.7-0.5,1.6-0.5,1.6-0.5c-1.5,1.6-2.4,3.4-2.2,5.7c0.2,1.9,1.8,3.7,3.6,4.2c1.7,0.5,3.3-0.2,4.6-1.2l-0.2-0.8
			c-0.7,0.2-1.7,0.2-2.5,0c-1.6-0.6-2.1-2.1-2-3.7c0.1-0.7,0.7-1.1,1.4-0.9c3.8,1.6,3.1,6.7,6.8,8.5c1.2,0.4,2.3,0,3.1-0.5
			c1.9-1.3,2.6-3.1,3.1-5.2c-1,1.2-1.9,2.4-3.4,2.7c-0.7,0.2-1.1,0-1.6-0.7c-1.5-2.4-1.9-6.3-5.4-6.7c-0.7,0-0.9-0.1-2.1,0.1
			c0.9-0.7,1.9-1.4,3.1-1.5c1.7-0.1,3.5,1.1,4.2,2.3c0.4,0.7,0.2,1.7-0.2,2.4l0.8,0.6c1.3-1.7,4.1-3.9,4.1-5.3
			c-0.2-2.8-4.4-4.5-6.9-5.5c0,0,0.4-1.1,0.2-1.9c-0.5-1.1-1.5-1.3-2.5-1.6c-1.8-0.5-4.7-0.8-6.1-1.9C403,2.6,403.6,1.4,404,0
			c-3.5,3.8-3.7,4.3-3.7,4.3s-1,1.9,0.8,2.4c2.3,0.6,4.9,1,7.2,1.9c0.7,0.2-0.1,0.9-0.5,0.9c-4.1-1.1-8-2.5-12.6-2.3
			c1,1.3,2.6,3,2.9,4.7c1.6-1.3,4.2-2,6.1-1l-2.4,0.8c-3.7,1.4-6.2,5.4-6.6,9.1c-0.3,4.2,1.9,7.9,5.6,9.8
			c4.4,2.4,11.5,1.4,13.6,6.1c0.5,1.1,0.4,3.4-0.5,4.7c-1.7,2.2-4.1,2.8-6.9,2.5c0,0-3.3-0.5-5.3-2c-2.8-2.2-3.6-5-4-8.2l-1.7,0
			c0.4,4.1,0,8.2-0.6,12l1.4,0.1c0,0,0.4-1,0.8-1.6c0.3-0.3,0.9-0.4,1.3-0.1c5,3.4,13,3.4,17.7,0.2c3.2-2.4,4.4-6,3.4-9.7
			C418,27.1,409.5,27.9,403.9,25.3z M411.2,10.1c0.4,0.2,0.8,0.6,1.1,1l-3.8-0.6C409.2,10,410.3,9.6,411.2,10.1z M429.9,24.2
			c-0.5,0-0.9-0.1-1.4-0.2c-0.4-0.1-0.8-0.3-1.2-0.4c-0.4-0.2-0.7-0.3-0.9-0.5c-0.2-0.2-0.4-0.3-0.5-0.3l-1.2,2.4
			c0.3,0.2,0.7,0.4,1.1,0.6c0.4,0.2,0.8,0.3,1.3,0.5c0.4,0.1,0.9,0.2,1.3,0.3c0.5,0.1,0.9,0.1,1.3,0.1c0.6,0,1.1-0.1,1.7-0.2
			c0.5-0.1,1-0.3,1.4-0.6c0.4-0.3,0.7-0.7,1-1.1c0.2-0.5,0.4-1,0.4-1.7c0-0.5-0.1-1-0.3-1.4c-0.2-0.4-0.4-0.7-0.7-1
			c-0.3-0.3-0.7-0.5-1.2-0.7c-0.5-0.2-1-0.4-1.5-0.5c-0.4-0.1-0.8-0.2-1.1-0.3c-0.3-0.1-0.6-0.2-0.8-0.3c-0.2-0.1-0.4-0.2-0.5-0.4
			c-0.1-0.1-0.2-0.3-0.2-0.5c0-0.3,0.1-0.6,0.4-0.7c0.2-0.2,0.6-0.3,1.1-0.3c0.4,0,0.7,0,1.1,0.1c0.4,0.1,0.7,0.2,1,0.4
			c0.3,0.1,0.6,0.3,0.8,0.4c0.2,0.1,0.3,0.2,0.4,0.3l1.2-2.3c-0.3-0.2-0.5-0.3-0.9-0.5c-0.3-0.2-0.7-0.3-1-0.4
			c-0.4-0.1-0.7-0.2-1.1-0.3c-0.4-0.1-0.8-0.1-1.2-0.1c-0.6,0-1.1,0.1-1.7,0.3c-0.5,0.2-1,0.4-1.4,0.7c-0.4,0.3-0.7,0.7-1,1.2
			c-0.2,0.5-0.3,1-0.3,1.7c0,0.4,0.1,0.8,0.2,1.2c0.1,0.3,0.3,0.6,0.6,0.9c0.3,0.3,0.6,0.5,1,0.7c0.4,0.2,0.9,0.4,1.4,0.5
			c0.4,0.1,0.8,0.2,1.1,0.3c0.3,0.1,0.6,0.2,0.9,0.3c0.3,0.1,0.5,0.2,0.6,0.4c0.1,0.1,0.2,0.3,0.2,0.6
			C431.4,23.9,430.9,24.2,429.9,24.2z M444.5,24.3c-0.3,0-0.4-0.1-0.5-0.2c-0.1-0.1-0.2-0.3-0.2-0.6v-5.8h-2.7v5.5
			c-0.3,0.5-0.6,0.8-0.9,1c-0.3,0.2-0.7,0.3-1,0.3c-0.4,0-0.7-0.1-0.9-0.4c-0.2-0.3-0.3-0.7-0.3-1.2v-5.1h-2.7v5.7
			c0,1.1,0.2,1.9,0.7,2.5c0.5,0.6,1.1,0.8,2,0.8c0.7,0,1.4-0.1,2-0.4c0.6-0.3,1.1-0.7,1.5-1.3l0.1,0.5c0.1,0.7,0.7,1.1,1.6,1.1
			c0.2,0,0.3,0,0.5,0c0.2,0,0.4-0.1,0.7-0.1V24.3z M448.5,21.5c0.1-0.2,0.2-0.4,0.3-0.6c0.1-0.2,0.3-0.4,0.5-0.5
			c0.2-0.1,0.4-0.3,0.6-0.3c0.2-0.1,0.4-0.1,0.6-0.1c0.4,0,0.6,0.1,0.9,0.4c0.2,0.3,0.3,0.7,0.3,1.3v5h2.7V21c0-0.4,0-0.8-0.1-1.1
			c-0.1-0.4-0.2-0.8-0.4-1.1c-0.2-0.3-0.5-0.6-0.8-0.8c-0.3-0.2-0.8-0.3-1.4-0.3c-0.8,0-1.4,0.1-2,0.4c-0.6,0.3-1,0.7-1.4,1.2v-1.5
			h-2.4v8.8h2.7V21.5z M462.5,25.1l0,0.5c0.1,0.7,0.7,1.1,1.6,1.1c0.2,0,0.4,0,0.6,0c0.2,0,0.5-0.1,0.7-0.1v-2.3
			c-0.3,0-0.4-0.1-0.5-0.2c-0.1-0.1-0.2-0.3-0.2-0.6v-9.3h-2.7v4.9c-0.3-0.5-0.6-0.9-1.2-1.2c-0.5-0.3-1.1-0.4-1.7-0.4
			c-0.6,0-1.1,0.1-1.6,0.4c-0.5,0.2-0.9,0.6-1.2,1c-0.3,0.4-0.6,0.9-0.8,1.5c-0.2,0.6-0.3,1.2-0.3,1.8c0,0.7,0.1,1.3,0.3,1.8
			c0.2,0.6,0.5,1,0.9,1.5c0.4,0.4,0.8,0.7,1.3,1c0.5,0.2,1.1,0.3,1.7,0.3c0.6,0,1.2-0.1,1.7-0.4C461.8,26.1,462.2,25.7,462.5,25.1z
			 M458.8,23.9c-0.4-0.4-0.6-1-0.6-1.6c0-0.3,0-0.6,0.1-0.9c0.1-0.3,0.2-0.5,0.4-0.7c0.2-0.2,0.4-0.4,0.6-0.5
			c0.2-0.1,0.5-0.2,0.8-0.2c0.4,0,0.8,0.1,1.2,0.4c0.4,0.3,0.6,0.7,0.8,1.1v1.9c-0.2,0.4-0.5,0.7-0.8,0.9c-0.3,0.2-0.7,0.3-1.1,0.3
			C459.7,24.5,459.1,24.3,458.8,23.9z M473.4,22.2c-0.3-0.2-0.6-0.4-1.1-0.6c-0.4-0.2-1-0.3-1.6-0.5c-0.3-0.1-0.6-0.2-0.8-0.2
			c-0.2-0.1-0.4-0.1-0.5-0.2c-0.1-0.1-0.2-0.2-0.3-0.2c-0.1-0.1-0.1-0.2-0.1-0.3c0-0.3,0.1-0.4,0.3-0.6c0.2-0.1,0.5-0.2,0.8-0.2
			c0.4,0,0.8,0.1,1.2,0.2c0.4,0.1,0.9,0.4,1.5,0.7l1.1-1.7c-0.6-0.3-1.2-0.6-1.9-0.8c-0.6-0.2-1.3-0.3-1.9-0.3
			c-0.5,0-1,0.1-1.4,0.2c-0.4,0.1-0.8,0.3-1.1,0.6c-0.3,0.3-0.6,0.6-0.8,0.9c-0.2,0.4-0.3,0.8-0.3,1.2c0,0.3,0.1,0.6,0.2,0.9
			c0.1,0.2,0.3,0.5,0.5,0.7c0.3,0.2,0.6,0.4,1,0.5c0.4,0.2,0.9,0.3,1.5,0.5c0.7,0.2,1.2,0.3,1.4,0.5c0.3,0.1,0.4,0.3,0.4,0.5
			c0,0.2-0.1,0.4-0.3,0.5c-0.2,0.1-0.5,0.2-0.9,0.2c-0.5,0-1-0.1-1.6-0.3c-0.5-0.2-1.1-0.4-1.7-0.8l-1.1,1.8
			c0.3,0.2,0.6,0.3,0.9,0.5c0.4,0.1,0.7,0.3,1.1,0.4c0.4,0.1,0.8,0.2,1.2,0.2c0.4,0.1,0.8,0.1,1.1,0.1c0.6,0,1.1-0.1,1.5-0.2
			c0.5-0.1,0.8-0.3,1.2-0.6c0.3-0.2,0.6-0.5,0.7-0.9c0.2-0.4,0.3-0.7,0.3-1.2c0-0.4-0.1-0.7-0.2-1
			C473.8,22.7,473.6,22.4,473.4,22.2z M480.2,26.6l3.1-8.8h-2.5l-1.9,6.7l-1.9-6.7h-2.7l3.1,8.8H480.2z M488.1,26.4
			c0.5-0.3,1-0.7,1.4-1.2l0.1,0.4c0.1,0.4,0.2,0.6,0.5,0.8c0.3,0.2,0.6,0.3,1.1,0.3c0.2,0,0.4,0,0.6,0c0.2,0,0.5-0.1,0.7-0.1v-2.3
			c-0.3,0-0.4-0.1-0.5-0.2c-0.1-0.1-0.2-0.3-0.2-0.6v-2.3c0-1.2-0.4-2.1-1.1-2.8c-0.7-0.6-1.7-0.9-3.1-0.9c-0.7,0-1.4,0.1-2,0.3
			c-0.6,0.2-1.2,0.5-1.8,0.9l0.8,1.7c0.5-0.3,0.9-0.6,1.4-0.7c0.4-0.2,0.9-0.2,1.4-0.2c1.2,0,1.8,0.5,1.8,1.5v0.4
			c-0.3-0.1-0.6-0.2-0.9-0.3c-0.3-0.1-0.7-0.1-1.1-0.1c-0.6,0-1.1,0.1-1.5,0.2c-0.5,0.1-0.8,0.3-1.2,0.6c-0.3,0.3-0.6,0.6-0.8,0.9
			c-0.2,0.4-0.3,0.8-0.3,1.2c0,0.4,0.1,0.8,0.2,1.1c0.2,0.3,0.4,0.6,0.6,0.9c0.3,0.3,0.6,0.4,1,0.6c0.4,0.1,0.8,0.2,1.2,0.2
			C487,26.8,487.6,26.6,488.1,26.4z M485.9,23.7c0-0.4,0.2-0.7,0.5-0.9c0.3-0.2,0.7-0.3,1.2-0.3c0.2,0,0.5,0,0.8,0.1
			c0.3,0,0.5,0.1,0.8,0.2v0.8c0,0.2-0.1,0.4-0.4,0.6c-0.2,0.2-0.4,0.3-0.7,0.4c-0.3,0.1-0.6,0.2-0.8,0.2c-0.4,0-0.7-0.1-0.9-0.3
			C486,24.3,485.9,24.1,485.9,23.7z M497.6,24.2c-0.2,0-0.3,0.1-0.4,0.1c-0.6,0-0.9-0.3-0.9-1v-9h-2.7v10.1c0,0.8,0.2,1.3,0.6,1.7
			c0.4,0.4,1,0.6,1.8,0.6c0.4,0,0.8,0,1.2-0.1c0.4-0.1,0.8-0.2,1.2-0.4l-0.4-2.2C497.9,24.1,497.7,24.2,497.6,24.2z M503.1,24.2
			c-0.2,0-0.3,0.1-0.4,0.1c-0.6,0-0.9-0.3-0.9-1v-9h-2.7v10.1c0,0.8,0.2,1.3,0.6,1.7c0.4,0.4,1,0.6,1.8,0.6c0.4,0,0.8,0,1.2-0.1
			c0.4-0.1,0.8-0.2,1.2-0.4l-0.4-2.2C503.4,24.1,503.2,24.2,503.1,24.2z M511.8,23c-0.1-0.3-0.3-0.5-0.6-0.7
			c-0.3-0.2-0.6-0.4-1.1-0.6c-0.4-0.2-1-0.3-1.6-0.5c-0.3-0.1-0.6-0.2-0.8-0.2c-0.2-0.1-0.4-0.1-0.5-0.2c-0.1-0.1-0.2-0.2-0.3-0.2
			c-0.1-0.1-0.1-0.2-0.1-0.3c0-0.3,0.1-0.4,0.3-0.6c0.2-0.1,0.5-0.2,0.8-0.2c0.4,0,0.8,0.1,1.2,0.2c0.4,0.1,0.9,0.4,1.5,0.7
			l1.1-1.7c-0.6-0.3-1.2-0.6-1.9-0.8c-0.6-0.2-1.3-0.3-1.9-0.3c-0.5,0-1,0.1-1.4,0.2c-0.4,0.1-0.8,0.3-1.1,0.6
			c-0.3,0.3-0.6,0.6-0.8,0.9c-0.2,0.4-0.3,0.8-0.3,1.2c0,0.3,0.1,0.6,0.2,0.9c0.1,0.2,0.3,0.5,0.5,0.7c0.2,0.2,0.6,0.4,1,0.5
			c0.4,0.2,0.9,0.3,1.5,0.5c0.7,0.2,1.2,0.3,1.4,0.5s0.4,0.3,0.4,0.5c0,0.2-0.1,0.4-0.3,0.5c-0.2,0.1-0.5,0.2-0.9,0.2
			c-0.5,0-1-0.1-1.6-0.3c-0.5-0.2-1.1-0.4-1.7-0.8l-1.1,1.8c0.3,0.2,0.6,0.3,0.9,0.5c0.4,0.1,0.7,0.3,1.1,0.4
			c0.4,0.1,0.8,0.2,1.2,0.2c0.4,0.1,0.8,0.1,1.1,0.1c0.6,0,1.1-0.1,1.5-0.2c0.5-0.1,0.8-0.3,1.2-0.6c0.3-0.2,0.6-0.5,0.7-0.9
			c0.2-0.4,0.3-0.7,0.3-1.2C512,23.5,511.9,23.2,511.8,23z M433.9,32.9h-2.8l-3,3.7v-7.1h-2.7v12.3h2.7v-2.6l0.9-1l2.3,3.5h2.8
			l-3.4-5L433.9,32.9z M442,34.1c-0.4-0.4-0.9-0.8-1.5-1c-0.6-0.3-1.2-0.4-2-0.4c-0.7,0-1.4,0.1-2,0.4c-0.6,0.3-1.1,0.6-1.5,1
			c-0.4,0.4-0.7,0.9-0.9,1.5c-0.2,0.6-0.3,1.1-0.3,1.7c0,0.6,0.1,1.2,0.3,1.7c0.2,0.6,0.5,1,0.9,1.5c0.4,0.4,0.9,0.8,1.5,1
			c0.6,0.2,1.3,0.4,2,0.4c0.7,0,1.4-0.1,2-0.4c0.6-0.2,1.1-0.6,1.5-1c0.4-0.4,0.7-0.9,0.9-1.5c0.2-0.6,0.3-1.1,0.3-1.7
			c0-0.6-0.1-1.2-0.3-1.7C442.7,35,442.4,34.5,442,34.1z M440.3,38.3c-0.1,0.3-0.2,0.5-0.4,0.7c-0.2,0.2-0.4,0.4-0.6,0.5
			c-0.2,0.1-0.5,0.2-0.8,0.2c-0.6,0-1-0.2-1.4-0.6c-0.4-0.4-0.6-1-0.6-1.7c0-0.3,0-0.6,0.2-0.9c0.1-0.3,0.2-0.5,0.4-0.7
			c0.2-0.2,0.4-0.4,0.6-0.5c0.2-0.1,0.5-0.2,0.8-0.2c0.6,0,1,0.2,1.4,0.6c0.4,0.4,0.6,1,0.6,1.7C440.4,37.7,440.4,38,440.3,38.3z
			 M457.7,33.9c-0.2-0.3-0.5-0.6-0.8-0.8c-0.3-0.2-0.8-0.3-1.3-0.3c-0.7,0-1.3,0.2-1.9,0.4c-0.5,0.3-1,0.7-1.3,1.3
			c-0.1-0.2-0.2-0.5-0.3-0.7c-0.1-0.2-0.3-0.4-0.5-0.5c-0.2-0.2-0.4-0.3-0.7-0.4c-0.3-0.1-0.6-0.1-1-0.1c-0.7,0-1.4,0.1-1.9,0.4
			c-0.6,0.3-1,0.7-1.3,1.2v-1.5h-2.4v8.8h2.7v-5.1c0.2-0.5,0.4-0.8,0.7-1.1c0.3-0.3,0.7-0.4,1-0.4c0.3,0,0.6,0.1,0.8,0.4
			c0.2,0.3,0.3,0.7,0.3,1.3v5h2.7v-5.1c0.2-0.5,0.4-0.8,0.7-1.1c0.3-0.3,0.7-0.4,1-0.4c0.3,0,0.6,0.1,0.8,0.4
			c0.2,0.3,0.3,0.7,0.3,1.3v5h2.7v-5.7c0-0.4,0-0.8-0.1-1.1C458,34.6,457.9,34.2,457.7,33.9z M473.2,33.9c-0.2-0.3-0.5-0.6-0.8-0.8
			c-0.3-0.2-0.8-0.3-1.3-0.3c-0.7,0-1.3,0.2-1.9,0.4c-0.5,0.3-1,0.7-1.3,1.3c-0.1-0.2-0.1-0.5-0.3-0.7c-0.1-0.2-0.3-0.4-0.5-0.5
			c-0.2-0.2-0.4-0.3-0.7-0.4c-0.3-0.1-0.6-0.1-1-0.1c-0.7,0-1.4,0.1-1.9,0.4c-0.6,0.3-1,0.7-1.3,1.2v-1.5h-2.4v8.8h2.7v-5.1
			c0.2-0.5,0.4-0.8,0.7-1.1c0.3-0.3,0.7-0.4,1-0.4c0.3,0,0.6,0.1,0.8,0.4c0.2,0.3,0.3,0.7,0.3,1.3v5h2.7v-5.1
			c0.2-0.5,0.4-0.8,0.7-1.1c0.3-0.3,0.7-0.4,1-0.4c0.3,0,0.6,0.1,0.8,0.4c0.2,0.3,0.3,0.7,0.3,1.3v5h2.7v-5.7c0-0.4,0-0.8-0.1-1.1
			C473.5,34.6,473.4,34.2,473.2,33.9z M483.6,38.7v-5.8H481v5.5c-0.3,0.5-0.5,0.8-0.9,1c-0.3,0.2-0.7,0.3-1,0.3
			c-0.4,0-0.7-0.1-0.9-0.4c-0.2-0.3-0.3-0.7-0.3-1.2v-5.1h-2.7v5.7c0,1.1,0.2,1.9,0.7,2.5c0.5,0.6,1.1,0.8,2,0.8
			c0.7,0,1.4-0.1,2-0.4c0.6-0.3,1.1-0.7,1.5-1.3l0,0.5c0.1,0.7,0.7,1.1,1.6,1.1c0.2,0,0.3,0,0.5,0c0.2,0,0.4-0.1,0.7-0.1v-2.3
			c-0.3,0-0.4-0.1-0.5-0.2C483.7,39.2,483.6,39,483.6,38.7z M493.6,33.9c-0.2-0.3-0.5-0.6-0.8-0.8c-0.4-0.2-0.8-0.3-1.4-0.3
			c-0.8,0-1.4,0.1-2,0.4c-0.6,0.3-1,0.7-1.4,1.2v-1.5h-2.4v8.8h2.7v-5.1c0.1-0.2,0.2-0.4,0.3-0.6c0.1-0.2,0.3-0.4,0.5-0.5
			c0.2-0.1,0.4-0.3,0.6-0.3c0.2-0.1,0.4-0.1,0.6-0.1c0.4,0,0.6,0.1,0.9,0.4c0.2,0.3,0.3,0.7,0.3,1.3v5h2.7v-5.7
			c0-0.4,0-0.8-0.1-1.1C493.9,34.6,493.8,34.2,493.6,33.9z M17.8,22.6l-4.6-1.9c-2.8-1.2-5.5-2.2-5.5-4.8c0-2.5,2.1-4,5.4-4
			c2.9,0,5.3,1.1,7.5,2.9l3.2-3.9C21,8.2,17.1,6.5,13,6.5c-6.7,0-11.5,4.2-11.5,9.7c0,5,3.5,7.7,6.9,9.1l4.7,2.1
			c3.2,1.3,5.4,2.2,5.4,5c0,2.7-2.2,4.4-6,4.4c-3.2,0-6.5-1.6-9-3.9L0,37.1c3.3,3.2,7.7,5,12.4,5c7.7,0,12.4-4.6,12.4-10.2
			C24.7,26.9,21.9,24.3,17.8,22.6z M40.9,15c-4.1,0-7.7,1.6-10.6,3.4l2.2,4c2.3-1.4,4.7-2.5,7.3-2.5c3.5,0,4.6,2.3,4.7,5
			c-10.6,1.2-15.2,4-15.2,9.6c0,4.5,3.2,7.6,7.7,7.6c3,0,5.7-1.5,8-3.5h0.2l0.5,2.8h4.9V26.2C50.5,19,47.4,15,40.9,15z M44.5,34.6
			c-1.9,1.8-3.5,2.8-5.6,2.8c-2.2,0-3.7-1-3.7-3.3c0-2.6,2.3-4.4,9.3-5.3V34.6z M86.8,15c-3.3,0-5.8,2-8.3,4.6
			c-1.2-2.9-3.4-4.6-7.2-4.6c-3.2,0-5.7,1.8-7.9,4.2h-0.2l-0.4-3.5h-5v25.8h6v-18c2-2.2,3.8-3.2,5.4-3.2c2.7,0,4,1.6,4,5.8v15.4h6
			v-18c2-2.2,3.8-3.2,5.4-3.2c2.7,0,3.9,1.6,3.9,5.8v15.4h6.1V25.3C94.8,18.8,92.3,15,86.8,15z M112.7,15c-4.1,0-7.7,1.6-10.6,3.4
			l2.2,4c2.3-1.4,4.7-2.5,7.3-2.5c3.5,0,4.6,2.3,4.7,5c-10.6,1.2-15.2,4-15.2,9.6c0,4.5,3.2,7.6,7.7,7.6c3,0,5.7-1.5,8-3.5h0.2
			l0.5,2.8h4.9V26.2C122.3,19,119.2,15,112.7,15z M116.3,34.6c-1.9,1.8-3.5,2.8-5.6,2.8c-2.2,0-3.7-1-3.7-3.3
			c0-2.6,2.3-4.4,9.3-5.3V34.6z M135.3,20.2h-0.2l-0.4-4.6h-5v25.8h6V25.7c1.6-3.9,4-5.3,6.1-5.3c1.1,0,1.8,0.2,2.7,0.4l1.1-5.3
			c-0.8-0.4-1.6-0.5-2.9-0.5C139.9,15,137.1,16.9,135.3,20.2z M162.6,15c-2.6,0-5.3,1.3-7.5,3.2l0.2-4.3V4.4h-6v37.1h4.8l0.5-2.6
			h0.2c2.2,2.1,4.7,3.3,7,3.3c5.7,0,11-5.1,11-14C172.8,20.2,169.1,15,162.6,15z M160.5,37.1c-1.5,0-3.4-0.6-5.2-2.2v-12
			c2-1.9,3.8-2.9,5.7-2.9c3.9,0,5.6,3,5.6,8.2C166.6,34.1,163.9,37.1,160.5,37.1z M189.1,15c-6,0-11.9,5.2-11.9,13.6
			c0,8.5,5.6,13.5,12.7,13.5c3.3,0,6.4-1.2,8.8-2.8l-2.1-3.8c-1.9,1.2-3.8,1.9-6,1.9c-4.2,0-7.1-2.6-7.6-7.3h16.4
			c0.2-0.6,0.3-1.7,0.3-2.8C199.8,20.1,196.1,15,189.1,15z M183.1,26.3c0.5-4.3,3.2-6.6,6.2-6.6c3.5,0,5.3,2.5,5.3,6.6H183.1z
			 M215.3,37.3c-2.5,0-3.6-1.5-3.6-4.5V20.5h6.6v-4.8h-6.6v-7h-5l-0.7,7l-4,0.3v4.5h3.7v12.3c0,5.6,2.2,9.4,8.2,9.4
			c2.1,0,3.8-0.5,5.3-0.9l-1.1-4.5C217.3,37,216.2,37.3,215.3,37.3z M233.5,26.3c-2.8-1-5.4-1.8-5.4-3.8c0-1.6,1.2-2.8,3.8-2.8
			c2.1,0,3.9,0.9,5.7,2.2l2.8-3.7c-2.1-1.6-5-3.1-8.6-3.1c-5.8,0-9.4,3.2-9.4,7.7c0,4.3,3.8,6.3,7.3,7.5c2.7,1.1,5.5,2,5.5,4.2
			c0,1.8-1.3,3.1-4.1,3.1c-2.6,0-4.8-1.1-7.2-2.9l-2.8,3.9c2.5,2.1,6.3,3.6,9.8,3.6c6.5,0,10-3.6,10-8
			C240.9,29.3,237.1,27.6,233.5,26.3z M252,20.2h-0.2l-0.4-4.6h-5v25.8h6V25.7c1.6-3.9,4-5.3,6.1-5.3c1.1,0,1.8,0.2,2.7,0.4
			l1.1-5.3c-0.8-0.4-1.6-0.5-2.9-0.5C256.6,15,253.8,16.9,252,20.2z M281.5,33.3c-1.9,2.5-3.5,3.6-5.7,3.6c-2.8,0-4-1.6-4-5.8V15.7
			h-6v16.2c0,6.5,2.4,10.3,7.9,10.3c3.5,0,6-1.7,8.3-4.4h0.2l0.5,3.8h4.9V15.7h-6V33.3z M324.2,15c-3.3,0-5.8,2-8.3,4.6
			c-1.2-2.9-3.4-4.6-7.2-4.6c-3.2,0-5.7,1.8-7.9,4.2h-0.2l-0.4-3.5h-5v25.8h6v-18c2-2.2,3.8-3.2,5.4-3.2c2.7,0,4,1.6,4,5.8v15.4h6
			v-18c2-2.2,3.8-3.2,5.4-3.2c2.7,0,3.9,1.6,3.9,5.8v15.4h6.1V25.3C332.2,18.8,329.6,15,324.2,15z M363.1,43.8h2.9v-38h-2.9V43.8z"
			/>
	</symbol>

	<symbol id="posts">
		<path d="M225.7,317.4h-18.3c-63,0-114.2-51.3-114.2-114.2v-63.5H67.7C30.3,139.6,0,169.9,0,207.3v135.4
			c0,37.4,30.3,67.7,67.7,67.7h67.7V512l135.4-101.6h33.9c12.1,0,23.3-3.4,33.1-9L225.7,317.4z"/>
		<path d="M444.3,0h-237c-37.4,0-67.7,30.3-67.7,67.7v135.4c0,37.4,30.3,67.7,67.7,67.7h33.9l135.4,101.6V270.8h67.7
			c37.4,0,67.7-30.3,67.7-67.7V67.7C512,30.3,481.7,0,444.3,0z M349.1,232.7H256c-12.9,0-23.3-10.4-23.3-23.3
			c0-12.9,10.4-23.3,23.3-23.3h93.1c12.9,0,23.3,10.4,23.3,23.3C372.4,222.3,361.9,232.7,349.1,232.7z M395.6,139.6H256
			c-12.9,0-23.3-10.4-23.3-23.3c0-12.9,10.4-23.3,23.3-23.3h139.6c12.9,0,23.3,10.4,23.3,23.3C418.9,129.2,408.5,139.6,395.6,139.6z"
			/>
	</symbol>

	<symbol id="plus">
		<path d="M441.682,185.682H325.318V69.318c0-38.56-31.259-69.818-69.818-69.818s-69.818,31.259-69.818,69.818v116.364
			H69.318C30.759,185.682-0.5,216.94-0.5,255.5s31.259,69.818,69.818,69.818h116.364v116.364c0,38.56,31.259,69.818,69.818,69.818
			s69.818-31.259,69.818-69.818V325.318h116.364c38.56,0,69.818-31.259,69.818-69.818S480.241,185.682,441.682,185.682z"/>
	</symbol>

	<symbol id="profile">
		<path d="M21.6,512v-98.8c0-73.2,56.9-86.2,107.3-97.7c15.3-3.4,31.3-7,46.6-12.5c3.6-1.4,11.3-6.6,6.3-21.9
			c-37.1-37.8-60.1-92.9-60.1-144.8C121.7,42.1,188.9,0,255.5,0c79,0,134.2,56,134.2,136.2c0,50.5-23.1,106.5-59.4,144
			c-3.9,13.3-2,21.1,1.7,22.7c15.2,4.8,31,8.3,46.3,11.6c52.5,11.4,112.1,24.4,112.1,98.7V512H21.6z"/>
	</symbol>

	<symbol id="profile-outline">
		<path d="M512,492.084h-37.23c0-52.678-32.122-62.473-93.68-76.542c-17.601-4.023-35.799-8.182-53.989-14.25
		c-15.97-5.404-38.603-27.032-24.187-74.13c0.644-3.475,2.279-6.76,4.841-9.417c34.957-36.237,57.544-91.969,57.544-141.986
		c0-87.549-59.112-118.613-109.734-118.613c-50.484,0-109.438,31.064-109.438,118.613c0,50.404,22.569,106.262,57.497,142.309
		c1.75,1.806,3.222,4.114,4.121,6.463c7.012,18.62,7.205,35.375,0.612,49.896c-8.475,18.659-24.57,25.466-27.71,26.641
		c-18.459,6.737-36.9,11.163-54.733,15.443C66.02,430.89,37.23,440.106,37.23,492.084H0C0,408.449,62.278,393.5,117.224,380.31
		c16.732-4.016,34.033-8.169,50.28-14.077c3.177-1.406,12.168-7.135,6.555-25.234c-40.287-43.246-65.162-106.141-65.162-165.239
		c0-47.488,15.108-87.481,43.692-115.65c26.298-25.919,62.869-40.193,102.977-40.193c40.109,0,76.721,14.267,103.094,40.171
		c28.701,28.193,43.871,68.192,43.871,115.672c0,57.508-25.228,121.383-64.583,164.227c-4.55,16.121-1.837,24.379,1.393,26.141
		c16.279,5.402,33.443,9.326,50.045,13.12C446.859,392.383,512,407.27,512,492.084z"/>
	</symbol>
	
	<symbol id="notification">
		<title>Notifikation</title>
		<path fill-rule="evenodd" clip-rule="evenodd" d="M256.1,0C256.1,0,256.1,0,256.1,0C256.1,0,256.1,0,256.1,0
			L256.1,0z M452.7,348.7c-15.1-16.1-65.5-82.8-65.5-185.8c0-117.5-81.2-151.7-81.2-151.7S285,0,256.1,0
			c-28.9,0-49.8,11.3-49.8,11.3s-81.2,34.1-81.2,151.7c0,100-50.5,169.6-65.5,185.8C30.3,380,33.1,458,77.2,458h124.7
			c0,29.8,24.3,54,54.2,54c30,0,54.2-24.2,54.2-54H435C481.6,458,481.9,380,452.7,348.7z"/>
	</symbol>

	<symbol id="rss">
		<title>RSS</title>
		<path d="M97.183,510.295C43.587,510.295,0,466.708,0,413.111s43.587-97.183,97.183-97.183
			s97.183,43.587,97.183,97.183S150.78,510.295,97.183,510.295z M97.183,362.518c-27.89,0-50.594,22.703-50.594,50.594
			c0,27.89,22.703,50.594,50.594,50.594s50.594-22.703,50.594-50.594C147.777,385.221,125.073,362.518,97.183,362.518z"/>
		<path d="M325.39,511.164c-18.031,0-32.648-14.617-32.648-32.648c0-142.495-115.927-258.422-258.422-258.422
			c-18.031,0-32.648-14.617-32.648-32.648s14.617-32.648,32.648-32.648c178.499,0,323.717,145.218,323.717,323.717
			C358.038,496.547,343.421,511.164,325.39,511.164z"/>
		<path d="M479.352,511.164c-18.031,0-32.648-14.617-32.648-32.648c0-227.39-184.995-412.385-412.385-412.385
			c-18.031,0-32.648-14.617-32.648-32.648S16.29,0.836,34.32,0.836C297.714,0.836,512,215.122,512,478.516
			C512,496.547,497.383,511.164,479.352,511.164z"/>
	</symbol>


	<symbol id="search">
		<title>Sök</title>
		<path d="M495.9,447.1l-111-113.6c25.1-34.8,40-77.8,40-124.3C424.9,93.6,333.4,0,220.5,0
			C107.6,0,16.1,93.6,16.1,209.1c0,115.6,91.5,209.2,204.4,209.2c34.8,0,67.6-8.9,96.3-24.6L432.5,512L495.9,447.1z M74.5,209.1
			c0-82.5,65.4-149.4,146-149.4c80.7,0,146,66.9,146,149.4c0,82.5-65.4,149.4-146,149.4C139.9,358.6,74.5,291.7,74.5,209.1z"/>
	</symbol>

	<symbol id="star">
		<title>Stjärna</title>
		<polygon fill-rule="evenodd" clip-rule="evenodd" points="512,185 326.8,184.2 256.1,2 181.3,184.2 0,184.2 
			131,324.4 46.5,510 256,416 469.3,510 385.5,323.8"/>
	</symbol>

	<symbol id="trash">
		<path d="M443.7,102.4h-68.3c0-104.1,0,7.8,0-68.3c0-14.6-19.6-34.1-34.1-34.1H170.7c-14.6,0-34.1,19.6-34.1,34.1
			c0,14.6,0,68.3,0,68.3H68.3c-14.6,0-34.1,19.6-34.1,34.1c0,13.5,0,2.2,0,68.3h68.3v273.1c0,29.1,5,34.1,34.1,34.1h238.9
			c29.1,0,34.1-5,34.1-34.1V204.8h68.3c0,0,0-53.7,0-68.3C477.9,122,458.3,102.4,443.7,102.4z M195.5,52.8h124.1v52.8H195.5V52.8z
			 M204.8,409.6h-34.1V273.1h34.1V409.6z M273.1,409.6h-34.1V273.1h34.1V409.6z M341.3,409.6h-34.1V273.1h34.1V409.6z"></path>
	</symbol>

	<symbol id="twitter">
		<path d="M512,95.116c-18.837,8.493-39.081,14.229-60.329,16.807
			c21.684-13.21,38.342-34.131,46.185-59.061C477.56,65.097,455.079,73.981,431.15,78.77c-19.16-20.749-46.459-33.714-76.673-33.714
			c-58.01,0-105.043,47.801-105.043,106.757c0,8.366,0.928,16.513,2.718,24.329c-87.299-4.452-164.7-46.955-216.508-111.545
			C26.6,80.363,21.422,98.702,21.422,118.269c0,37.038,18.543,69.712,46.73,88.859c-17.219-0.557-33.418-5.358-47.578-13.352
			c-0.009,0.443-0.009,0.89-0.009,1.34c0,51.726,36.21,94.874,84.26,104.687c-8.811,2.438-18.091,3.744-27.673,3.744
			c-6.77,0-13.35-0.67-19.763-1.914c13.368,42.412,52.16,73.276,98.126,74.136c-35.951,28.634-81.244,45.706-130.458,45.706
			c-8.481,0-16.84-0.51-25.057-1.498c46.485,30.293,101.699,47.968,161.02,47.968c193.212,0,298.871-162.674,298.871-303.755
			c0-4.626-0.102-9.232-0.305-13.811C480.109,135.326,497.918,116.524,512,95.116z"/>
	</symbol>

	<symbol id="upload">
		<title>Ladda upp</title>
		<path d="M122.092,221.138h76.634v111.288c0,25.994,15.387,47.051,34.363,47.051h45.818
			c18.98,0,34.363-21.057,34.363-47.051V221.138h76.092c21.347,0,16.811-17.957-1.455-36.937L274.818,62.803
			c-15.341-15.91-20.775-18.048-38.181,0L122.936,184.201C104.67,203.181,102.829,221.138,122.092,221.138z M46,422.358v39.587h420
			v-39.587H46z" />
	</symbol>

	<symbol id="write">
		<title>Skriva</title>
		<path d="M325.8,69.8v46.5h46.5V23.3l0,0H0v372.4h93.1v-46.5H46.5V69.8h325.8"/>
			<rect x="291.3" y="99.9" transform="matrix(0.7071 0.7071 -0.7071 0.7071 295.9328 -166.0265)" width="114.2" height="348.6"/>
		<polygon points="231.3,472 133.9,488.7 150.6,391.3 	"/>
	</symbol>

	<symbol id="lightning">
		<title>Blixt</title>
		<path d="M181.5,0h202.4L282.4,188h131.3L111.9,512l75.3-204h-89L181.5,0z"/>
	</symbol>

	<symbol id="stop">
		<title>Stopp</title>
		<path d="M256,0C114.8,0,0,114.8,0,256s114.8,256,256,256s256-114.8,256-256
			S397.2,0,256,0z M53.3,256c0-111.8,90.9-202.7,202.7-202.7c44.4,0,85.4,14.5,118.9,38.9L92.2,374.9C67.9,341.4,53.3,300.4,53.3,256z
			 M256,458.7c-44.4,0-85.4-14.5-118.9-38.9l282.7-282.7c24.3,33.4,38.9,74.4,38.9,118.9C458.7,367.8,367.8,458.7,256,458.7z"/>
	</symbol>

	<symbol id="bin">
		<title>Soptunna</title>
		<path d="M181.5,399.6c-31,0-56.2,25.1-56.2,56c0,30.9,25.2,56,56.2,56c31,0,56.2-25.1,56.2-56
			C237.8,424.6,212.6,399.6,181.5,399.6z M426.3,58.9H422c-1.1,0-1.9-0.9-2-1.9c-0.1-9.1-1.8-15.4-27.8-15.6c-1,0-1.9-0.8-1.9-1.8
			c-0.7-14.7-10.2-24.9-34.6-25.3c-0.8,0-1.4-0.5-1.8-1.1c-4.2-7.5-51.8-5.7-59.7-5.3c-0.7,0-1.3-0.3-1.7-0.8l-4.4-6.4
			c-0.4-0.5-1-0.8-1.6-0.8H259c-0.7,0-8.2,9-8.8,9C109.6,8.5,89.7,20.1,84.7,22.1c-1,0.4-1.9,0.9-1.9,2c0.5,25.1,11.6,41.8,35.4,45.9
			c0.4,0.1,0.9,0.3,1.2,0.6c12.5,14.6,17,53,17.8,61.7c0.1,1,0.9,1.7,1.9,1.7h3.6c1,0,1.9,0.8,2,1.8l23.7,253
			c4.2-0.8,8.6-1.3,13.1-1.3c37.7,0,68.3,30.4,68.3,68c0,8.6-1.6,16.8-4.6,24.4l66.2,4.6c0.1,0,0.1,0,0.2,0
			c19.6,0,35.9-14.8,37.8-34.2c8.8-90.9,27.2-301.9,27.2-335.6c0-36.6,39.9-36.6,49.5-36.1c1.1,0.1,2.1-0.8,2.1-1.9V60.8
			C428.2,59.7,427.3,58.9,426.3,58.9z M109.9,49.4c-5.3,0-9.6-4.3-9.6-9.6c0-5.3,4.3-9.6,9.6-9.6s9.6,4.3,9.6,9.6
			C119.5,45.1,115.2,49.4,109.9,49.4z"/>
	</symbol>

	<symbol id="wind">
		<title>Vind</title>
		<path d="M319.6,101.6c0-49.4-38.8-89.6-86.5-89.6c-47.7,0-86.5,40.2-86.5,89.6h41.6c0-25.6,20.1-46.5,44.9-46.5
			c24.7,0,44.8,20.9,44.8,46.5c0,25.6-20.1,46.5-44.8,46.5H97.5v43.1h135.6C280.8,191.3,319.6,151,319.6,101.6z M294.1,320.7H97.5
			v43.1h196.5c24.7,0,44.8,20.9,44.8,46.5c0,25.6-20.1,46.5-44.8,46.5c-24.7,0-44.9-20.8-44.9-46.5h-41.6c0,49.4,38.8,89.6,86.5,89.6
			c47.7,0,86.5-40.2,86.5-89.6S341.8,320.7,294.1,320.7z M425.5,98.3c-47.7,0-86.5,40.2-86.5,89.6h41.6c0-25.6,20.1-46.5,44.9-46.5
			c24.7,0,44.8,20.8,44.8,46.5c0,25.6-20.1,46.5-44.8,46.5H0v43.1h425.5c47.7,0,86.5-40.2,86.5-89.6C512,138.5,473.2,98.3,425.5,98.3
			z"/>
	</symbol>

	<symbol id="waves">
		<title>Vågor</title>
		<path d="M92.7,173.4c21.3-15.7,59.4-6.4,83.2,20.1c21,23.4,50.4,36.7,80.8,36.7h0.4c30.7-0.1,59.2-13.2,80.1-36.9
			c23.4-26.4,61-35.4,82.1-19.9l59.6,43.8l33.1-38.9l-59.6-43.8c-44.1-32.5-114.3-20.2-156.4,27.3c-10.6,12.1-24.6,18.7-39.1,18.8
			h-0.2c-14.7,0-28.9-6.7-39.8-18.9c-42.6-47.4-113-59.6-157.2-27.2L0,178.3l33.1,38.9L92.7,173.4z M296,327.3
			c-10.6,12.1-24.6,18.7-39.1,18.8h-0.2c-14.7,0-28.9-6.7-39.8-18.9c-42.6-47.4-113-59.6-157.2-27.2L0,343.7l33.1,38.9l59.6-43.8
			c21.3-15.7,59.4-6.4,83.2,20.1c21,23.4,50.4,36.7,80.8,36.7h0.4c30.7-0.1,59.2-13.2,80.1-36.9c23.4-26.4,61-35.5,82.1-19.9
			l59.6,43.8l33.1-38.9l-59.6-43.8C408.2,267.5,338.1,279.7,296,327.3z"/>
	</symbol>

	<symbol id="pine">
		<title>Gran</title>
		<polygon points="465.6,511.5 347.4,320.4 422.5,320.4 296.9,136.1 351.7,136.1 255,-0.5 158.3,136.1 213.1,136.1 
			87.5,320.4 162.6,320.4 44.4,511.5 	"/>
	</symbol>

	<symbol id="leaf">
		<title>Löv</title>
		<g>
			<path d="M507.2,0c-92.6,68.6-194.7,7.8-342.9,101.4C49.7,173.8,66.8,312.1,80.4,371c2-2.3,4-4.6,6.1-7
				c8.9-10.8,19.8-20.1,30.2-30.7c10.8-10.2,21.2-21.6,32.9-31.5c11.7-9.9,23.6-19.9,35.5-29.9c11.9-9.9,23.5-20.3,36-28.7
				c12.2-8.8,24.3-17.4,35.9-25.8c11.7-8.3,22.7-16.5,33.5-23.8c11.1-6.7,21.6-13.1,31.2-18.9c38.5-23.3,64.2-38.9,64.2-38.9
				s-23.5,19.5-58.7,48.7c-8.8,7.3-18.2,15.2-28.3,23.5c-9.7,8.9-19.6,18.8-29.9,28.7c-10.3,9.9-20.9,20.2-31.8,30.7
				c-11.1,10-21,21.9-31.3,33.3c-10.2,11.4-20.4,22.9-30.4,34.1c-10,11.2-18.5,23.6-27.5,34.9c-8.5,11.6-17.7,21.9-24.6,33.2
				c-1.5,2.3-2.9,4.4-4.4,6.6C222.4,440.6,545.1,499.2,507.2,0z M67.6,383.8c-6.9,7.9-13.5,15.5-19.7,22.5
				c-8.1,9.1-14.6,18.8-20.8,26.7c-6.1,7.9-11.5,15.3-15.8,22.4c-4.2,6.6-8,12.3-9.7,15.4c-1.9,3.3-2.9,5-2.9,5L56,512
				c0,0,0.8-1.9,2.2-5.4c1.5-3.7,3.5-7.3,6.1-13c2.3-5.4,5.9-12.2,10.6-20.3c4.7-7.9,9.2-17.3,15.6-26.8c5-7.6,10.4-15.8,16-24.3
				C87,416.4,71.6,401,67.6,383.8z"/>
		</g>
	</symbol>

	<symbol id="sun">
		<title>Sol</title>
		<path d="M256.4,90.1c5.4,0,9.8-4.4,9.8-9.8V21.5c0-5.4-4.4-9.8-9.8-9.8s-9.8,4.4-9.8,9.8v58.9
			C246.6,85.7,251,90.1,256.4,90.1z M256.4,423.7c-5.4,0-9.8,4.4-9.8,9.8v58.9c0,5.4,4.4,9.8,9.8,9.8s9.8-4.4,9.8-9.8v-58.9
			C266.2,428.1,261.9,423.7,256.4,423.7z M79.8,256.9c0-5.4-4.4-9.8-9.8-9.8H11.2c-5.4,0-9.8,4.4-9.8,9.8c0,5.4,4.4,9.8,9.8,9.8H70
			C75.5,266.7,79.8,262.3,79.8,256.9z M501.7,247.1h-58.9c-5.4,0-9.8,4.4-9.8,9.8c0,5.4,4.4,9.8,9.8,9.8h58.9c5.4,0,9.8-4.4,9.8-9.8
			C511.5,251.5,507.1,247.1,501.7,247.1z M138.5,125.1L96.9,83.5c-3.8-3.8-10-3.8-13.9,0c-3.8,3.8-3.8,10,0,13.9l41.6,41.6
			c3.8,3.8,10,3.8,13.9,0C142.3,135.1,142.3,128.9,138.5,125.1z M388.2,374.8c-3.8-3.8-10-3.8-13.9,0c-3.8,3.8-3.8,10,0,13.9
			l41.6,41.6c3.8,3.8,10,3.8,13.9,0c3.8-3.8,3.8-10,0-13.9L388.2,374.8z M117.7,381.8l-41.6,41.6c-3.8,3.8-3.8,10,0,13.9
			c3.8,3.8,10,3.8,13.9,0l41.6-41.6c3.8-3.8,3.8-10,0-13.9C127.7,377.9,121.5,377.9,117.7,381.8z M395.2,132l41.6-41.6
			c3.8-3.8,3.8-10,0-13.9c-3.8-3.8-10-3.8-13.9,0l-41.6,41.6c-3.8,3.8-3.8,10,0,13.9C385.1,135.9,391.3,135.9,395.2,132z
			 M339.4,173.6c-45.9-45.9-120.4-45.9-166.3,0c-45.9,45.9-45.9,120.4,0,166.3c45.9,45.9,120.4,45.9,166.3,0
			C385.4,294,385.4,219.5,339.4,173.6z"/>
	</symbol>

	<symbol id="cabin">
		<title>Stuga</title>
		<path d="M109.7,413.5h36.6V242.8h-36.6V413.5z M436,218.8l27.3-32.2L256-1L48.7,186.6L76,218.8L256,56L436,218.8z
			 M434.4,383.6l-83.6-122.8h36.5l-64.4-91l-64.4,91h36.5l-83.6,122.8h50L182.7,511h280.5l-78.7-127.4H434.4z"/>
	</symbol>

	<symbol id="waterdrop">
		<title>Vattendroppe</title>
		<path d="M263.5-1c0,0-176.8,236.9-176.8,334.8c0,97.9,79.1,177.2,176.8,177.2c97.6,0,176.8-79.3,176.8-177.2
			C440.3,235.9,263.5-1,263.5-1z M192.8,168.4c0,0-79.1,187.4,62.8,295.4C319.6,512.4-12.8,463.1,192.8,168.4z"/>
	</symbol>

	<symbol id="fire">
		<title>Eld</title>
		<path d="M356.34,96.651c0,0,12.312,42.582-2.667,77.763C337.828,84.902,256.764,25.751,202.745-0.499
			c13.102,142.358-74.543,216.615-74.543,216.615c2.415-43.555-11.484-66.699-11.484-66.699s-10.785,48.457-35.172,90.721
			c-95.904,166.189,67.846,252.577,97.288,266.447c-21.301-23.605-36.1-59.829-7.488-109.411c12.995-22.517,18.74-48.334,18.74-48.334
			s22.052,12.329,20.765,35.535c0,0,32.288-38.396,32.875-115.408c25.838,12.558,141.984,126.692,69.643,242.533
			C609.783,391.613,356.34,96.651,356.34,96.651z"/>
	</symbol>

	<symbol id="fish">
		<title>Fiskben</title>
		<path fill-rule="evenodd" clip-rule="evenodd" d="M510.078,134.557c0,0-45.144-25.829-77.072-57.678
			C401.077,45.031,375.184,0,375.184,0s-31.316,99.899-6.162,136.507l-29.291,26.139c-29.877-30.487-49.36-58.791-49.36-58.791
			s6.024,40.888,34.225,72.297l-26.801,23.918c-36.241-37.992-56.166-76.439-56.166-76.439s3.091,54.17,36.788,93.732l-28.259,25.218
			c-45.059-48.085-67.502-98.591-67.502-98.591s2.176,69.428,43.883,119.668l-29.637,26.448
			c-54.684-60.38-78.637-125.761-78.637-125.761s-0.993,88.642,48.78,152.406l-29.332,26.175
			c-39.169-42.777-69.853-90.231-69.853-90.231S-37.815,411.093,18.395,481.406l108.428-68.671L74.56,511.76
			c77.783,6.027,161.764-103.236,161.764-103.236s-28-3.468-64.643-32.921l25.75-28.71c63.87,49.098,152.081,48.121,152.081,48.121
			s-65.072-23.72-125.419-77.849l27.013-30.119c49.799,37.534,114.621,39.557,114.621,39.557s-47.187-20.864-93.824-62.745
			l25.575-28.516c39.025,29.637,88.681,32.457,88.681,32.457s-35.277-18.183-71.682-51.411l24.203-26.986
			c30.622,24.405,67.314,29.788,67.314,29.788s-25.429-17.414-54.07-44.555l26.23-29.246
			C415.021,169.247,510.078,134.557,510.078,134.557z M89.426,371.333l-14.394,4.178l4.178,14.394
			c0.629,2.168-0.618,4.436-2.786,5.065c-2.168,0.629-4.436-0.618-5.065-2.786l-4.178-14.394l-14.394,4.178
			c-2.168,0.629-4.436-0.618-5.065-2.786c-0.629-2.168,0.618-4.436,2.786-5.065l14.394-4.178l-4.178-14.394
			c-0.629-2.168,0.618-4.436,2.786-5.065c2.168-0.629,4.436,0.618,5.065,2.786l4.178,14.394l14.394-4.179
			c2.168-0.629,4.436,0.618,5.065,2.786C92.842,368.436,91.594,370.704,89.426,371.333z"/>
	</symbol>

	<symbol id="position">
		<title>Position</title>
		<path fill-rule="evenodd" clip-rule="evenodd" d="M255.998,0C154.984,0,73.09,80.632,73.09,180.092
			C73.09,307.502,255.998,512,255.998,512S438.91,317.022,438.91,180.092C438.91,80.632,357.016,0,255.998,0z M255.998,246.006
			c-38.805,0-70.27-30.978-70.27-69.188c0-38.213,31.465-69.191,70.27-69.191c38.809,0,70.274,30.978,70.274,69.191
			C326.272,215.028,294.807,246.006,255.998,246.006z"/>
	</symbol>

	<symbol id="mail">
		<path d="M489.369,101.973c-11.48-9.787-26.357-15.707-42.624-15.707H66.254
			c-16.267,0-31.144,5.92-42.623,15.707L256.5,301.655L489.369,101.973z M512.406,148.512c-0.426-8.096-2.327-15.798-5.422-22.859
			c-0.65-1.279-1.336-2.522-2.096-3.693L256.5,334.953L8.113,121.961c-0.758,1.169-1.443,2.41-2.092,3.686
			c-3.097,7.062-4.999,14.766-5.425,22.865c-0.049,1.153-0.095,2.309-0.095,3.509v234.01c0,36.317,29.439,65.758,65.753,65.758
			h380.491c36.315,0,65.755-29.441,65.755-65.758v-234.01C512.501,150.821,512.455,149.665,512.406,148.512z"/>
	</symbol>

	<symbol id="map">
		<title>Karta</title>
		<path d="M0,466.824l150.588-60.235V45.177L0,105.412V466.824z M180.706,406.589l150.588,60.235V105.412
			L180.706,45.177V406.589z M361.412,105.412v361.412L512,406.589V45.177L361.412,105.412z"/>
	</symbol>

	<symbol id="statistics">
		<title>Statistik</title>
		<path d="M472.561,117.304c-21.781,0-39.439,17.658-39.439,39.439
			s17.658,39.439,39.439,39.439c21.781,0,39.439-17.658,39.439-39.439S494.342,117.304,472.561,117.304z M314.805,290.836
			c-21.781,0-39.439,17.658-39.439,39.439s17.658,39.439,39.439,39.439c21.781,0,39.439-17.658,39.439-39.439
			S336.586,290.836,314.805,290.836z M346.225,283.887l11.893,10.365l83.022-91.12l-11.893-10.365L346.225,283.887z
			 M184.488,252.361l-7.553,13.848l94.654,47.327l7.553-13.848L184.488,252.361z M141.272,196.182
			c-21.781,0-39.439,17.658-39.439,39.439c0,21.781,17.658,39.439,39.439,39.439c21.781,0,39.439-17.658,39.439-39.439
			C180.712,213.84,163.054,196.182,141.272,196.182z M0,384.434l11.982,10.262l97.031-118.581l-11.982-10.262L0,384.434z"/>
	</symbol>

	<symbol id="lightbulb">
		<title>Glödlampa</title>
		<path fill-rule="evenodd" clip-rule="evenodd" d="M373.9,49C343.7,18.7,302,0,256,0c-46,0-87.7,18.7-117.9,49s-48.8,72-48.8,118.2
		c0,46.2,18.6,88,48.8,118.2c40.3,40.3,49.7,84.1,51.7,113.2c1.1,16.6,15.8,30.1,32.4,30.1h67.6c16.6,0,31.3-13.5,32.4-30.1
		c2-29.1,11.4-72.8,51.7-113.2c30.2-30.2,48.8-72,48.8-118.2C422.7,121,404,79.2,373.9,49z M265.3,418h-19.4
		c-0.2-22.3-0.7-79.6-1-114.9c6.9,0.2,14.1,0.2,21.1-0.1C265.8,338.9,265.5,395.8,265.3,418z M366.3,277.9
		c-33.2,33.2-51.6,73.6-54.8,120c-0.7,10.9-10.7,20.1-21.8,20.1h-19.1c0.1-22.3,0.5-79.4,0.7-115.3c26.4-1.9,49.3-9.9,49.3-38.1
		c0-16.3-12.7-24.9-25.3-24.9c-7.6,0-14.7,2.9-19.9,8.1c-6,5.9-9.2,14.3-9.2,24.4c0,2.2,0,11.9-0.1,25.5c-6.6,0.3-14.2,0.3-21.1,0.1
		c-0.1-11.1-0.1-19.4-0.1-22.6c0-10.7-3.2-19.7-9.2-25.8c-5.3-5.4-12.5-8.4-20.2-8.4c-13.1,0-26.9,9.4-26.9,26.7
		c0,26.7,23.1,33.8,51.2,35.3c0.3,35.3,0.8,92.8,1,115.2h-18.4c-11.1,0-21-9.2-21.8-20.1c-3.2-46.4-21.6-86.7-54.8-120
		C116.2,248.3,100,209,100,167.2c0-41.8,16.2-81.1,45.7-110.7c29.5-29.6,68.7-45.8,110.3-45.8c41.7,0,80.9,16.3,110.3,45.8
		c29.5,29.6,45.7,68.9,45.7,110.7C412,209,395.8,248.3,366.3,277.9z M271.4,297.2c0.1-13.4,0.1-22.9,0.1-25.1
		c0-8.6,2.6-15.7,7.6-20.6c4.2-4.1,10.1-6.5,16.2-6.5c9.6,0,19.9,6.1,19.9,19.6C315.3,284.8,302.3,294.8,271.4,297.2z M239.6,297.5
		c-28-1.5-45.8-8.4-45.8-29.9c0-14,10.9-21.4,21.6-21.4c6.3,0,12.1,2.4,16.4,6.8c5,5.2,7.7,12.8,7.7,22.1
		C239.4,278.3,239.5,286.5,239.6,297.5z"/>
		<path fill-rule="evenodd" clip-rule="evenodd" d="M285.8,446.5h-56.6c-18.1,0-32.7-2.8-32.7,14.9c0,17.7,41.5,50.6,59.5,50.6h3
			c18.1,0,56.6-32.9,56.6-50.6C315.5,443.7,303.9,446.5,285.8,446.5z"/>
	</symbol>

	<symbol id="three-waterdrops">
		<title>Naturlig försurning</title>
		<path d="M24.8,421.3c0,50.1,42.1,90.7,93.9,90.7s93.9-40.5,93.9-90.7s-93.9-171.7-93.9-171.7
			S24.8,371.2,24.8,421.3z M80.8,336.5c0,0-42.1,96,33.1,151.5C148,512.5-28,487.5,80.8,336.5z M349.6,171.7
			C349.6,121.1,255.7,0,255.7,0s-93.9,121.1-93.9,171.7c0,50.1,42.1,90.7,93.9,90.7S349.6,221.9,349.6,171.7z M218.4,86.9
			c0,0-42.1,96,33.1,151.5C285.6,262.9,109.1,237.9,218.4,86.9z M393.3,249.6c0,0-93.9,121.1-93.9,171.7c0,50.1,42.1,90.7,93.9,90.7
			s93.9-40.5,93.9-90.7C486.7,371.2,393.3,249.6,393.3,249.6z M355.5,336.5c0,0-42.1,96,33.1,151.5
			C422.7,512.5,246.7,487.5,355.5,336.5z"/>
	</symbol>

	<symbol id="poison">
		<title>Gift</title>
		<path d="M426.8,251.7c0-94.7-76.2-171.4-171-171.4s-171,76.6-171,171.4c0,63.3,34.6,118.7,85.8,148l-8.5,62.8
			l46.9,4.3l4.3-49.5c4.3,1.1,8.5,2.1,12.8,2.7V471h60.2v-51.1c4.3-0.5,8.5-1.6,12.8-2.7l4.3,49.5l46.9-4.3l-8.5-62.8
			C392.7,370.4,426.8,315.1,426.8,251.7z M187.5,297.5c-23.4,0-42.6-19.2-42.6-42.6s19.2-42.6,42.6-42.6s42.6,19.2,42.6,42.6
			C230.7,278.4,211.5,297.5,187.5,297.5z M230.2,351.3l26.1-51.1l25,51.1H230.2z M324.5,297.5c-23.4,0-42.6-19.2-42.6-42.6
			s19.2-42.6,42.6-42.6s42.6,19.2,42.6,42.6C367.6,278.4,348.4,297.5,324.5,297.5z M503.5,434.8c-9.1-9-23.4-10.1-34.1-3.2
			L422,384.3c-4.8-4.8-12.8-4.8-17.6,0L384.7,405c-4.8,4.8-4.8,12.8,0,17.6l47.4,47.4c-6.9,10.6-6.4,25,3.2,34.1
			c10.7,10.6,27.2,10.6,37.8,0c6.4-6.4,9.1-15.4,7.5-23.4c8.5,1.6,17-1.1,23.4-7.5C514.1,462.5,514.1,445.5,503.5,434.8z M42.1,80.4
			l47.4,47.4c4.8,4.8,12.8,4.8,17.6,0l20.2-20.2c4.8-4.8,4.8-12.8,0-17.6L79.9,42.6c6.9-10.6,6.4-25-3.2-34.1
			C66.1-2.1,49.5-2.1,38.9,8.5c-6.4,6.4-9.1,14.9-7.5,23.4c-8.5-1.6-17,1.1-23.4,7.5C-2.7,50-2.7,66.5,8,77.2
			C17,86.2,31.4,87.3,42.1,80.4z M404.9,127.2c4.8,4.8,12.8,4.8,17.6,0l47.4-47.4c10.7,6.9,25,6.4,34.1-3.2
			c10.7-10.6,10.7-27.1,0-37.8c-6.4-6.4-15.5-9-23.4-7.5c1.6-8.5-1.1-17-7.5-23.4c-10.7-10.6-27.2-10.6-37.8,0
			c-9.1,9-10.1,23.4-3.2,34.1l-47.4,47.4c-4.8,4.8-4.8,12.8,0,17.6L404.9,127.2z M106.6,384.8c-4.8-4.8-12.8-4.8-17.6,0l-46.9,46.8
			c-10.7-6.9-25-6.4-34.1,3.2C-2.7,445.5-2.7,462,8,472.6c6.4,6.4,15.5,9,23.4,7.5c-1.6,8.5,1.1,17,7.5,23.4
			c10.7,10.6,27.2,10.6,37.8,0c9.1-9,10.1-23.4,3.2-34.1l47.4-47.4c4.8-4.8,4.8-12.8,0-17.6L106.6,384.8z"/>
	</symbol>

	<symbol id="limited-environmental-impact">
		<title>Begränsad miljöpåverkan</title>
		<path d="M389.1,378.9c-18,0-35.4-3.8-51.2-11.1c-20.1-9.2-25-35.5-9.4-51.1l0,0c9.3-9.3,23.5-11.9,35.5-6.3
			c7.8,3.6,16.3,5.5,25.1,5.5c16,0,31-6.2,42.3-17.5c11.3-11.3,17.5-26.3,17.5-42.3c0-16-6.2-31-17.5-42.3
			c-16.1-16.1-39.8-21.9-63-14.1c-8.3,2.8-15.5,8-21.7,14.2c-0.2,0.2-0.4,0.4-0.6,0.5L209.4,343.2c-27,26.8-64.4,39.6-103.1,34.6
			c-22.1-2.9-43.2-12-60.5-26C13,325.1-3.6,285,0.7,242.9c2.3-22.3,10.7-43.6,24.4-61.4c23.9-31,59.5-48.4,97.8-48.4
			c32.7,0,63.4,12.7,86.5,35.6l46.6,43.9l46.6-43.9c28.4-28.2,68.2-40.9,109.1-33.6c16.8,3,32.8,9.6,46.8,19.3
			C492.7,178.3,512,215.6,512,256c0,32.8-12.8,63.7-36,86.9C452.8,366.1,421.9,378.9,389.1,378.9z M122.9,196.2
			c-16,0-31,6.2-42.3,17.5C69.3,225,63.1,240,63.1,256c0,16,6.2,31,17.5,42.3c11.3,11.3,26.3,17.5,42.3,17.5s31-6.2,42.3-17.5
			c0.2-0.2,0.4-0.4,0.7-0.7L210,256l-44.2-41.6c-0.2-0.2-0.5-0.4-0.7-0.7C153.9,202.4,138.8,196.2,122.9,196.2z"/>
	</symbol>

	<symbol id="close-lg">
		<title>Stäng</title>
		<g>
			<path d="M497.6,418.867l-171.2-171.2L481.067,93c19.2-19.2,19.2-50.667,0-69.867s-50.667-19.2-69.867,0
				L256.533,177.8L101.867,23.133C82.667,3.4,51.2,3.4,32,23.133C12.8,42.333,12.8,73.8,32,93l154.667,154.667L14.4,419.4
				c-19.2,19.2-19.2,50.667,0,69.867s50.667,19.2,69.867,0L256.533,317l171.2,171.2c19.2,19.2,50.667,19.2,69.867,0
				C516.8,469,516.8,438.067,497.6,418.867z"/>
		</g>
	</symbol>

	<symbol id="menu">
		<title>Meny</title>
		<g>
			<path d="M474.755,389.727H36.812c-20.246,0-36.762,16.516-36.762,36.762c0,20.246,16.516,36.762,36.762,36.762
				h438.477c20.246,0,36.762-16.516,36.762-36.762C511.517,406.243,495.001,389.727,474.755,389.727z"/>
			<path d="M474.755,219.238H36.812C16.566,219.238,0.05,235.754,0.05,256s16.516,36.762,36.762,36.762h438.477
				c20.246,0,36.762-16.516,36.762-36.762S495.001,219.238,474.755,219.238z"/>
			<path d="M36.812,122.273h438.477c20.246,0,36.762-16.516,36.762-36.762s-16.516-36.762-36.762-36.762H36.812
				c-20.246,0-36.762,16.516-36.762,36.762S16.566,122.273,36.812,122.273z"/>
		</g>
	</symbol>

	<symbol id="minus-thin">
		<title>Minus</title>
		<g>
			<path d="M0,227.467h512v57.067H0V227.467z"/>
		</g>
	</symbol>

	<symbol id="plus-thin">
		<title>Plus</title>
		<g>
			<polygon points="512,227.436 284.564,227.436 284.564,0 227.436,0 227.436,227.436 0,227.436 0,284.564 
				227.436,284.564 227.436,512 284.564,512 284.564,284.564 512,284.564 	"/>
		</g>
	</symbol>

	<symbol id="minus-circle">
		<title>Minus med cirkel</title>
		<g>
			<path fill="#E7E7E7" d="M48,2.9C23.1,2.9,2.9,23.1,2.9,48S23.1,93.1,48,93.1S93.1,72.9,93.1,48S72.9,2.9,48,2.9z"/>
			<g>
				<g>
					<path fill="#A0A5A8" d="M48,96C21.5,96,0,74.5,0,48S21.5,0,48,0s48,21.5,48,48S74.5,96,48,96z M48,2.9C23.1,2.9,2.9,23.1,2.9,48
						S23.1,93.1,48,93.1S93.1,72.9,93.1,48S72.9,2.9,48,2.9z"/>
				</g>
			</g>
			<path fill="#A0A5A8" d="M29.2,45.9h37.6v4.2H29.2V45.9z"/>
		</g>
	</symbol>

	<symbol id="plus-circle">
		<title>Plus med cirkel</title>
		<g>
			<path fill="#FFFFFF" d="M48,2.9C23.1,2.9,2.9,23.1,2.9,48S23.1,93.1,48,93.1S93.1,72.9,93.1,48S72.9,2.9,48,2.9z"/>
			<g>
				<g>
					<path fill="#A0A5A8" d="M48,96C21.5,96,0,74.5,0,48S21.5,0,48,0s48,21.5,48,48S74.5,96,48,96z M48,2.9C23.1,2.9,2.9,23.1,2.9,48
						S23.1,93.1,48,93.1S93.1,72.9,93.1,48S72.9,2.9,48,2.9z"/>
				</g>
			</g>
			<path fill="#A0A5A8" d="M29.2,45.9h37.6v4.2H29.2V45.9z"/>
			<path fill="#A0A5A8" d="M45.9,29.2h4.2v37.6h-4.2V29.2z"/>
		</g>
	</symbol>
</svg>