<?xml version="1.0" encoding="utf-8"?>
<!-- Generator: Adobe Illustrator 17.1.0, SVG Export Plug-In . SVG Version: 6.00 Build 0)  -->
<!DOCTYPE svg PUBLIC "-//W3C//DTD SVG 1.1//EN" "http://www.w3.org/Graphics/SVG/1.1/DTD/svg11.dtd">
<svg version="1.1" id="Layer_1" xmlns="http://www.w3.org/2000/svg" xmlns:xlink="http://www.w3.org/1999/xlink" x="0px" y="0px"
	 width="512px" height="512px" viewBox="0 0 512 512" enable-background="new 0 0 512 512" xml:space="preserve">
<g>
	<g>
		<g>
			<path fill-rule="evenodd" clip-rule="evenodd" fill="#491D1D" d="M403.9,25.3c-1.9-0.7-3.7-2.6-3.8-4.8c0-2.3,0.9-4.1,2.8-5.4
				c0.7-0.5,1.6-0.5,1.6-0.5c-1.5,1.6-2.4,3.4-2.2,5.7c0.2,1.9,1.8,3.7,3.6,4.2c1.7,0.5,3.3-0.2,4.6-1.2l-0.2-0.8
				c-0.7,0.2-1.7,0.2-2.5,0c-1.6-0.6-2.1-2.1-2-3.7c0.1-0.7,0.7-1.1,1.4-0.9c3.8,1.6,3.1,6.7,6.8,8.5c1.2,0.4,2.3,0,3.1-0.5
				c1.9-1.3,2.6-3.1,3.1-5.2c-1,1.2-1.9,2.4-3.4,2.7c-0.7,0.2-1.1,0-1.6-0.7c-1.5-2.4-1.9-6.3-5.4-6.7c-0.7,0-0.9-0.1-2.1,0.1
				c0.9-0.7,1.9-1.4,3.1-1.5c1.7-0.1,3.5,1.1,4.2,2.3c0.4,0.7,0.2,1.7-0.2,2.4l0.8,0.6c1.3-1.7,4.1-3.9,4.1-5.3
				c-0.2-2.8-4.4-4.5-6.9-5.5c0,0,0.4-1.1,0.2-1.9c-0.5-1.1-1.5-1.3-2.5-1.6c-1.8-0.5-4.7-0.8-6.1-1.9C403,2.6,403.6,1.4,404,0
				c-3.5,3.8-3.7,4.3-3.7,4.3s-1,1.9,0.8,2.4c2.3,0.6,4.9,1,7.2,1.9c0.7,0.2-0.1,0.9-0.5,0.9c-4.1-1.1-8-2.5-12.6-2.3
				c1,1.3,2.6,3,2.9,4.7c1.6-1.3,4.2-2,6.1-1l-2.4,0.8c-3.7,1.4-6.2,5.4-6.6,9.1c-0.3,4.2,1.9,7.9,5.6,9.8
				c4.4,2.4,11.5,1.4,13.6,6.1c0.5,1.1,0.4,3.4-0.5,4.7c-1.7,2.2-4.1,2.8-6.9,2.5c0,0-3.3-0.5-5.3-2c-2.8-2.2-3.6-5-4-8.2l-1.7,0
				c0.4,4.1,0,8.2-0.6,12l1.4,0.1c0,0,0.4-1,0.8-1.6c0.3-0.3,0.9-0.4,1.3-0.1c5,3.4,13,3.4,17.7,0.2c3.2-2.4,4.4-6,3.4-9.7
				C418,27.1,409.5,27.9,403.9,25.3z M411.2,10.1c0.4,0.2,0.8,0.6,1.1,1l-3.8-0.6C409.2,10,410.3,9.6,411.2,10.1z M429.9,24.2
				c-0.5,0-0.9-0.1-1.4-0.2c-0.4-0.1-0.8-0.3-1.2-0.4c-0.4-0.2-0.7-0.3-0.9-0.5c-0.2-0.2-0.4-0.3-0.5-0.3l-1.2,2.4
				c0.3,0.2,0.7,0.4,1.1,0.6c0.4,0.2,0.8,0.3,1.3,0.5c0.4,0.1,0.9,0.2,1.3,0.3c0.5,0.1,0.9,0.1,1.3,0.1c0.6,0,1.1-0.1,1.7-0.2
				c0.5-0.1,1-0.3,1.4-0.6c0.4-0.3,0.7-0.7,1-1.1c0.2-0.5,0.4-1,0.4-1.7c0-0.5-0.1-1-0.3-1.4c-0.2-0.4-0.4-0.7-0.7-1
				c-0.3-0.3-0.7-0.5-1.2-0.7c-0.5-0.2-1-0.4-1.5-0.5c-0.4-0.1-0.8-0.2-1.1-0.3c-0.3-0.1-0.6-0.2-0.8-0.3c-0.2-0.1-0.4-0.2-0.5-0.4
				c-0.1-0.1-0.2-0.3-0.2-0.5c0-0.3,0.1-0.6,0.4-0.7c0.2-0.2,0.6-0.3,1.1-0.3c0.4,0,0.7,0,1.1,0.1c0.4,0.1,0.7,0.2,1,0.4
				c0.3,0.1,0.6,0.3,0.8,0.4c0.2,0.1,0.3,0.2,0.4,0.3l1.2-2.3c-0.3-0.2-0.5-0.3-0.9-0.5c-0.3-0.2-0.7-0.3-1-0.4
				c-0.4-0.1-0.7-0.2-1.1-0.3c-0.4-0.1-0.8-0.1-1.2-0.1c-0.6,0-1.1,0.1-1.7,0.3c-0.5,0.2-1,0.4-1.4,0.7c-0.4,0.3-0.7,0.7-1,1.2
				c-0.2,0.5-0.3,1-0.3,1.7c0,0.4,0.1,0.8,0.2,1.2c0.1,0.3,0.3,0.6,0.6,0.9c0.3,0.3,0.6,0.5,1,0.7c0.4,0.2,0.9,0.4,1.4,0.5
				c0.4,0.1,0.8,0.2,1.1,0.3c0.3,0.1,0.6,0.2,0.9,0.3c0.3,0.1,0.5,0.2,0.6,0.4c0.1,0.1,0.2,0.3,0.2,0.6
				C431.4,23.9,430.9,24.2,429.9,24.2z M444.5,24.3c-0.3,0-0.4-0.1-0.5-0.2c-0.1-0.1-0.2-0.3-0.2-0.6v-5.8h-2.7v5.5
				c-0.3,0.5-0.6,0.8-0.9,1c-0.3,0.2-0.7,0.3-1,0.3c-0.4,0-0.7-0.1-0.9-0.4c-0.2-0.3-0.3-0.7-0.3-1.2v-5.1h-2.7v5.7
				c0,1.1,0.2,1.9,0.7,2.5c0.5,0.6,1.1,0.8,2,0.8c0.7,0,1.4-0.1,2-0.4c0.6-0.3,1.1-0.7,1.5-1.3l0.1,0.5c0.1,0.7,0.7,1.1,1.6,1.1
				c0.2,0,0.3,0,0.5,0c0.2,0,0.4-0.1,0.7-0.1V24.3z M448.5,21.5c0.1-0.2,0.2-0.4,0.3-0.6c0.1-0.2,0.3-0.4,0.5-0.5
				c0.2-0.1,0.4-0.3,0.6-0.3c0.2-0.1,0.4-0.1,0.6-0.1c0.4,0,0.6,0.1,0.9,0.4c0.2,0.3,0.3,0.7,0.3,1.3v5h2.7V21c0-0.4,0-0.8-0.1-1.1
				c-0.1-0.4-0.2-0.8-0.4-1.1c-0.2-0.3-0.5-0.6-0.8-0.8c-0.3-0.2-0.8-0.3-1.4-0.3c-0.8,0-1.4,0.1-2,0.4c-0.6,0.3-1,0.7-1.4,1.2v-1.5
				h-2.4v8.8h2.7V21.5z M462.5,25.1l0,0.5c0.1,0.7,0.7,1.1,1.6,1.1c0.2,0,0.4,0,0.6,0c0.2,0,0.5-0.1,0.7-0.1v-2.3
				c-0.3,0-0.4-0.1-0.5-0.2c-0.1-0.1-0.2-0.3-0.2-0.6v-9.3h-2.7v4.9c-0.3-0.5-0.6-0.9-1.2-1.2c-0.5-0.3-1.1-0.4-1.7-0.4
				c-0.6,0-1.1,0.1-1.6,0.4c-0.5,0.2-0.9,0.6-1.2,1c-0.3,0.4-0.6,0.9-0.8,1.5c-0.2,0.6-0.3,1.2-0.3,1.8c0,0.7,0.1,1.3,0.3,1.8
				c0.2,0.6,0.5,1,0.9,1.5c0.4,0.4,0.8,0.7,1.3,1c0.5,0.2,1.1,0.3,1.7,0.3c0.6,0,1.2-0.1,1.7-0.4C461.8,26.1,462.2,25.7,462.5,25.1z
				 M458.8,23.9c-0.4-0.4-0.6-1-0.6-1.6c0-0.3,0-0.6,0.1-0.9c0.1-0.3,0.2-0.5,0.4-0.7c0.2-0.2,0.4-0.4,0.6-0.5
				c0.2-0.1,0.5-0.2,0.8-0.2c0.4,0,0.8,0.1,1.2,0.4c0.4,0.3,0.6,0.7,0.8,1.1v1.9c-0.2,0.4-0.5,0.7-0.8,0.9c-0.3,0.2-0.7,0.3-1.1,0.3
				C459.7,24.5,459.1,24.3,458.8,23.9z M473.4,22.2c-0.3-0.2-0.6-0.4-1.1-0.6c-0.4-0.2-1-0.3-1.6-0.5c-0.3-0.1-0.6-0.2-0.8-0.2
				c-0.2-0.1-0.4-0.1-0.5-0.2c-0.1-0.1-0.2-0.2-0.3-0.2c-0.1-0.1-0.1-0.2-0.1-0.3c0-0.3,0.1-0.4,0.3-0.6c0.2-0.1,0.5-0.2,0.8-0.2
				c0.4,0,0.8,0.1,1.2,0.2c0.4,0.1,0.9,0.4,1.5,0.7l1.1-1.7c-0.6-0.3-1.2-0.6-1.9-0.8c-0.6-0.2-1.3-0.3-1.9-0.3
				c-0.5,0-1,0.1-1.4,0.2c-0.4,0.1-0.8,0.3-1.1,0.6c-0.3,0.3-0.6,0.6-0.8,0.9c-0.2,0.4-0.3,0.8-0.3,1.2c0,0.3,0.1,0.6,0.2,0.9
				c0.1,0.2,0.3,0.5,0.5,0.7c0.3,0.2,0.6,0.4,1,0.5c0.4,0.2,0.9,0.3,1.5,0.5c0.7,0.2,1.2,0.3,1.4,0.5c0.3,0.1,0.4,0.3,0.4,0.5
				c0,0.2-0.1,0.4-0.3,0.5c-0.2,0.1-0.5,0.2-0.9,0.2c-0.5,0-1-0.1-1.6-0.3c-0.5-0.2-1.1-0.4-1.7-0.8l-1.1,1.8
				c0.3,0.2,0.6,0.3,0.9,0.5c0.4,0.1,0.7,0.3,1.1,0.4c0.4,0.1,0.8,0.2,1.2,0.2c0.4,0.1,0.8,0.1,1.1,0.1c0.6,0,1.1-0.1,1.5-0.2
				c0.5-0.1,0.8-0.3,1.2-0.6c0.3-0.2,0.6-0.5,0.7-0.9c0.2-0.4,0.3-0.7,0.3-1.2c0-0.4-0.1-0.7-0.2-1
				C473.8,22.7,473.6,22.4,473.4,22.2z M480.2,26.6l3.1-8.8h-2.5l-1.9,6.7l-1.9-6.7h-2.7l3.1,8.8H480.2z M488.1,26.4
				c0.5-0.3,1-0.7,1.4-1.2l0.1,0.4c0.1,0.4,0.2,0.6,0.5,0.8c0.3,0.2,0.6,0.3,1.1,0.3c0.2,0,0.4,0,0.6,0c0.2,0,0.5-0.1,0.7-0.1v-2.3
				c-0.3,0-0.4-0.1-0.5-0.2c-0.1-0.1-0.2-0.3-0.2-0.6v-2.3c0-1.2-0.4-2.1-1.1-2.8c-0.7-0.6-1.7-0.9-3.1-0.9c-0.7,0-1.4,0.1-2,0.3
				c-0.6,0.2-1.2,0.5-1.8,0.9l0.8,1.7c0.5-0.3,0.9-0.6,1.4-0.7c0.4-0.2,0.9-0.2,1.4-0.2c1.2,0,1.8,0.5,1.8,1.5v0.4
				c-0.3-0.1-0.6-0.2-0.9-0.3c-0.3-0.1-0.7-0.1-1.1-0.1c-0.6,0-1.1,0.1-1.5,0.2c-0.5,0.1-0.8,0.3-1.2,0.6c-0.3,0.3-0.6,0.6-0.8,0.9
				c-0.2,0.4-0.3,0.8-0.3,1.2c0,0.4,0.1,0.8,0.2,1.1c0.2,0.3,0.4,0.6,0.6,0.9c0.3,0.3,0.6,0.4,1,0.6c0.4,0.1,0.8,0.2,1.2,0.2
				C487,26.8,487.6,26.6,488.1,26.4z M485.9,23.7c0-0.4,0.2-0.7,0.5-0.9c0.3-0.2,0.7-0.3,1.2-0.3c0.2,0,0.5,0,0.8,0.1
				c0.3,0,0.5,0.1,0.8,0.2v0.8c0,0.2-0.1,0.4-0.4,0.6c-0.2,0.2-0.4,0.3-0.7,0.4c-0.3,0.1-0.6,0.2-0.8,0.2c-0.4,0-0.7-0.1-0.9-0.3
				C486,24.3,485.9,24.1,485.9,23.7z M497.6,24.2c-0.2,0-0.3,0.1-0.4,0.1c-0.6,0-0.9-0.3-0.9-1v-9h-2.7v10.1c0,0.8,0.2,1.3,0.6,1.7
				c0.4,0.4,1,0.6,1.8,0.6c0.4,0,0.8,0,1.2-0.1c0.4-0.1,0.8-0.2,1.2-0.4l-0.4-2.2C497.9,24.1,497.7,24.2,497.6,24.2z M503.1,24.2
				c-0.2,0-0.3,0.1-0.4,0.1c-0.6,0-0.9-0.3-0.9-1v-9h-2.7v10.1c0,0.8,0.2,1.3,0.6,1.7c0.4,0.4,1,0.6,1.8,0.6c0.4,0,0.8,0,1.2-0.1
				c0.4-0.1,0.8-0.2,1.2-0.4l-0.4-2.2C503.4,24.1,503.2,24.2,503.1,24.2z M511.8,23c-0.1-0.3-0.3-0.5-0.6-0.7
				c-0.3-0.2-0.6-0.4-1.1-0.6c-0.4-0.2-1-0.3-1.6-0.5c-0.3-0.1-0.6-0.2-0.8-0.2c-0.2-0.1-0.4-0.1-0.5-0.2c-0.1-0.1-0.2-0.2-0.3-0.2
				c-0.1-0.1-0.1-0.2-0.1-0.3c0-0.3,0.1-0.4,0.3-0.6c0.2-0.1,0.5-0.2,0.8-0.2c0.4,0,0.8,0.1,1.2,0.2c0.4,0.1,0.9,0.4,1.5,0.7
				l1.1-1.7c-0.6-0.3-1.2-0.6-1.9-0.8c-0.6-0.2-1.3-0.3-1.9-0.3c-0.5,0-1,0.1-1.4,0.2c-0.4,0.1-0.8,0.3-1.1,0.6
				c-0.3,0.3-0.6,0.6-0.8,0.9c-0.2,0.4-0.3,0.8-0.3,1.2c0,0.3,0.1,0.6,0.2,0.9c0.1,0.2,0.3,0.5,0.5,0.7c0.2,0.2,0.6,0.4,1,0.5
				c0.4,0.2,0.9,0.3,1.5,0.5c0.7,0.2,1.2,0.3,1.4,0.5s0.4,0.3,0.4,0.5c0,0.2-0.1,0.4-0.3,0.5c-0.2,0.1-0.5,0.2-0.9,0.2
				c-0.5,0-1-0.1-1.6-0.3c-0.5-0.2-1.1-0.4-1.7-0.8l-1.1,1.8c0.3,0.2,0.6,0.3,0.9,0.5c0.4,0.1,0.7,0.3,1.1,0.4
				c0.4,0.1,0.8,0.2,1.2,0.2c0.4,0.1,0.8,0.1,1.1,0.1c0.6,0,1.1-0.1,1.5-0.2c0.5-0.1,0.8-0.3,1.2-0.6c0.3-0.2,0.6-0.5,0.7-0.9
				c0.2-0.4,0.3-0.7,0.3-1.2C512,23.5,511.9,23.2,511.8,23z M433.9,32.9h-2.8l-3,3.7v-7.1h-2.7v12.3h2.7v-2.6l0.9-1l2.3,3.5h2.8
				l-3.4-5L433.9,32.9z M442,34.1c-0.4-0.4-0.9-0.8-1.5-1c-0.6-0.3-1.2-0.4-2-0.4c-0.7,0-1.4,0.1-2,0.4c-0.6,0.3-1.1,0.6-1.5,1
				c-0.4,0.4-0.7,0.9-0.9,1.5c-0.2,0.6-0.3,1.1-0.3,1.7c0,0.6,0.1,1.2,0.3,1.7c0.2,0.6,0.5,1,0.9,1.5c0.4,0.4,0.9,0.8,1.5,1
				c0.6,0.2,1.3,0.4,2,0.4c0.7,0,1.4-0.1,2-0.4c0.6-0.2,1.1-0.6,1.5-1c0.4-0.4,0.7-0.9,0.9-1.5c0.2-0.6,0.3-1.1,0.3-1.7
				c0-0.6-0.1-1.2-0.3-1.7C442.7,35,442.4,34.5,442,34.1z M440.3,38.3c-0.1,0.3-0.2,0.5-0.4,0.7c-0.2,0.2-0.4,0.4-0.6,0.5
				c-0.2,0.1-0.5,0.2-0.8,0.2c-0.6,0-1-0.2-1.4-0.6c-0.4-0.4-0.6-1-0.6-1.7c0-0.3,0-0.6,0.2-0.9c0.1-0.3,0.2-0.5,0.4-0.7
				c0.2-0.2,0.4-0.4,0.6-0.5c0.2-0.1,0.5-0.2,0.8-0.2c0.6,0,1,0.2,1.4,0.6c0.4,0.4,0.6,1,0.6,1.7C440.4,37.7,440.4,38,440.3,38.3z
				 M457.7,33.9c-0.2-0.3-0.5-0.6-0.8-0.8c-0.3-0.2-0.8-0.3-1.3-0.3c-0.7,0-1.3,0.2-1.9,0.4c-0.5,0.3-1,0.7-1.3,1.3
				c-0.1-0.2-0.2-0.5-0.3-0.7c-0.1-0.2-0.3-0.4-0.5-0.5c-0.2-0.2-0.4-0.3-0.7-0.4c-0.3-0.1-0.6-0.1-1-0.1c-0.7,0-1.4,0.1-1.9,0.4
				c-0.6,0.3-1,0.7-1.3,1.2v-1.5h-2.4v8.8h2.7v-5.1c0.2-0.5,0.4-0.8,0.7-1.1c0.3-0.3,0.7-0.4,1-0.4c0.3,0,0.6,0.1,0.8,0.4
				c0.2,0.3,0.3,0.7,0.3,1.3v5h2.7v-5.1c0.2-0.5,0.4-0.8,0.7-1.1c0.3-0.3,0.7-0.4,1-0.4c0.3,0,0.6,0.1,0.8,0.4
				c0.2,0.3,0.3,0.7,0.3,1.3v5h2.7v-5.7c0-0.4,0-0.8-0.1-1.1C458,34.6,457.9,34.2,457.7,33.9z M473.2,33.9c-0.2-0.3-0.5-0.6-0.8-0.8
				c-0.3-0.2-0.8-0.3-1.3-0.3c-0.7,0-1.3,0.2-1.9,0.4c-0.5,0.3-1,0.7-1.3,1.3c-0.1-0.2-0.1-0.5-0.3-0.7c-0.1-0.2-0.3-0.4-0.5-0.5
				c-0.2-0.2-0.4-0.3-0.7-0.4c-0.3-0.1-0.6-0.1-1-0.1c-0.7,0-1.4,0.1-1.9,0.4c-0.6,0.3-1,0.7-1.3,1.2v-1.5h-2.4v8.8h2.7v-5.1
				c0.2-0.5,0.4-0.8,0.7-1.1c0.3-0.3,0.7-0.4,1-0.4c0.3,0,0.6,0.1,0.8,0.4c0.2,0.3,0.3,0.7,0.3,1.3v5h2.7v-5.1
				c0.2-0.5,0.4-0.8,0.7-1.1c0.3-0.3,0.7-0.4,1-0.4c0.3,0,0.6,0.1,0.8,0.4c0.2,0.3,0.3,0.7,0.3,1.3v5h2.7v-5.7c0-0.4,0-0.8-0.1-1.1
				C473.5,34.6,473.4,34.2,473.2,33.9z M483.6,38.7v-5.8H481v5.5c-0.3,0.5-0.5,0.8-0.9,1c-0.3,0.2-0.7,0.3-1,0.3
				c-0.4,0-0.7-0.1-0.9-0.4c-0.2-0.3-0.3-0.7-0.3-1.2v-5.1h-2.7v5.7c0,1.1,0.2,1.9,0.7,2.5c0.5,0.6,1.1,0.8,2,0.8
				c0.7,0,1.4-0.1,2-0.4c0.6-0.3,1.1-0.7,1.5-1.3l0,0.5c0.1,0.7,0.7,1.1,1.6,1.1c0.2,0,0.3,0,0.5,0c0.2,0,0.4-0.1,0.7-0.1v-2.3
				c-0.3,0-0.4-0.1-0.5-0.2C483.7,39.2,483.6,39,483.6,38.7z M493.6,33.9c-0.2-0.3-0.5-0.6-0.8-0.8c-0.4-0.2-0.8-0.3-1.4-0.3
				c-0.8,0-1.4,0.1-2,0.4c-0.6,0.3-1,0.7-1.4,1.2v-1.5h-2.4v8.8h2.7v-5.1c0.1-0.2,0.2-0.4,0.3-0.6c0.1-0.2,0.3-0.4,0.5-0.5
				c0.2-0.1,0.4-0.3,0.6-0.3c0.2-0.1,0.4-0.1,0.6-0.1c0.4,0,0.6,0.1,0.9,0.4c0.2,0.3,0.3,0.7,0.3,1.3v5h2.7v-5.7
				c0-0.4,0-0.8-0.1-1.1C493.9,34.6,493.8,34.2,493.6,33.9z M17.8,22.6l-4.6-1.9c-2.8-1.2-5.5-2.2-5.5-4.8c0-2.5,2.1-4,5.4-4
				c2.9,0,5.3,1.1,7.5,2.9l3.2-3.9C21,8.2,17.1,6.5,13,6.5c-6.7,0-11.5,4.2-11.5,9.7c0,5,3.5,7.7,6.9,9.1l4.7,2.1
				c3.2,1.3,5.4,2.2,5.4,5c0,2.7-2.2,4.4-6,4.4c-3.2,0-6.5-1.6-9-3.9L0,37.1c3.3,3.2,7.7,5,12.4,5c7.7,0,12.4-4.6,12.4-10.2
				C24.7,26.9,21.9,24.3,17.8,22.6z M40.9,15c-4.1,0-7.7,1.6-10.6,3.4l2.2,4c2.3-1.4,4.7-2.5,7.3-2.5c3.5,0,4.6,2.3,4.7,5
				c-10.6,1.2-15.2,4-15.2,9.6c0,4.5,3.2,7.6,7.7,7.6c3,0,5.7-1.5,8-3.5h0.2l0.5,2.8h4.9V26.2C50.5,19,47.4,15,40.9,15z M44.5,34.6
				c-1.9,1.8-3.5,2.8-5.6,2.8c-2.2,0-3.7-1-3.7-3.3c0-2.6,2.3-4.4,9.3-5.3V34.6z M86.8,15c-3.3,0-5.8,2-8.3,4.6
				c-1.2-2.9-3.4-4.6-7.2-4.6c-3.2,0-5.7,1.8-7.9,4.2h-0.2l-0.4-3.5h-5v25.8h6v-18c2-2.2,3.8-3.2,5.4-3.2c2.7,0,4,1.6,4,5.8v15.4h6
				v-18c2-2.2,3.8-3.2,5.4-3.2c2.7,0,3.9,1.6,3.9,5.8v15.4h6.1V25.3C94.8,18.8,92.3,15,86.8,15z M112.7,15c-4.1,0-7.7,1.6-10.6,3.4
				l2.2,4c2.3-1.4,4.7-2.5,7.3-2.5c3.5,0,4.6,2.3,4.7,5c-10.6,1.2-15.2,4-15.2,9.6c0,4.5,3.2,7.6,7.7,7.6c3,0,5.7-1.5,8-3.5h0.2
				l0.5,2.8h4.9V26.2C122.3,19,119.2,15,112.7,15z M116.3,34.6c-1.9,1.8-3.5,2.8-5.6,2.8c-2.2,0-3.7-1-3.7-3.3
				c0-2.6,2.3-4.4,9.3-5.3V34.6z M135.3,20.2h-0.2l-0.4-4.6h-5v25.8h6V25.7c1.6-3.9,4-5.3,6.1-5.3c1.1,0,1.8,0.2,2.7,0.4l1.1-5.3
				c-0.8-0.4-1.6-0.5-2.9-0.5C139.9,15,137.1,16.9,135.3,20.2z M162.6,15c-2.6,0-5.3,1.3-7.5,3.2l0.2-4.3V4.4h-6v37.1h4.8l0.5-2.6
				h0.2c2.2,2.1,4.7,3.3,7,3.3c5.7,0,11-5.1,11-14C172.8,20.2,169.1,15,162.6,15z M160.5,37.1c-1.5,0-3.4-0.6-5.2-2.2v-12
				c2-1.9,3.8-2.9,5.7-2.9c3.9,0,5.6,3,5.6,8.2C166.6,34.1,163.9,37.1,160.5,37.1z M189.1,15c-6,0-11.9,5.2-11.9,13.6
				c0,8.5,5.6,13.5,12.7,13.5c3.3,0,6.4-1.2,8.8-2.8l-2.1-3.8c-1.9,1.2-3.8,1.9-6,1.9c-4.2,0-7.1-2.6-7.6-7.3h16.4
				c0.2-0.6,0.3-1.7,0.3-2.8C199.8,20.1,196.1,15,189.1,15z M183.1,26.3c0.5-4.3,3.2-6.6,6.2-6.6c3.5,0,5.3,2.5,5.3,6.6H183.1z
				 M215.3,37.3c-2.5,0-3.6-1.5-3.6-4.5V20.5h6.6v-4.8h-6.6v-7h-5l-0.7,7l-4,0.3v4.5h3.7v12.3c0,5.6,2.2,9.4,8.2,9.4
				c2.1,0,3.8-0.5,5.3-0.9l-1.1-4.5C217.3,37,216.2,37.3,215.3,37.3z M233.5,26.3c-2.8-1-5.4-1.8-5.4-3.8c0-1.6,1.2-2.8,3.8-2.8
				c2.1,0,3.9,0.9,5.7,2.2l2.8-3.7c-2.1-1.6-5-3.1-8.6-3.1c-5.8,0-9.4,3.2-9.4,7.7c0,4.3,3.8,6.3,7.3,7.5c2.7,1.1,5.5,2,5.5,4.2
				c0,1.8-1.3,3.1-4.1,3.1c-2.6,0-4.8-1.1-7.2-2.9l-2.8,3.9c2.5,2.1,6.3,3.6,9.8,3.6c6.5,0,10-3.6,10-8
				C240.9,29.3,237.1,27.6,233.5,26.3z M252,20.2h-0.2l-0.4-4.6h-5v25.8h6V25.7c1.6-3.9,4-5.3,6.1-5.3c1.1,0,1.8,0.2,2.7,0.4
				l1.1-5.3c-0.8-0.4-1.6-0.5-2.9-0.5C256.6,15,253.8,16.9,252,20.2z M281.5,33.3c-1.9,2.5-3.5,3.6-5.7,3.6c-2.8,0-4-1.6-4-5.8V15.7
				h-6v16.2c0,6.5,2.4,10.3,7.9,10.3c3.5,0,6-1.7,8.3-4.4h0.2l0.5,3.8h4.9V15.7h-6V33.3z M324.2,15c-3.3,0-5.8,2-8.3,4.6
				c-1.2-2.9-3.4-4.6-7.2-4.6c-3.2,0-5.7,1.8-7.9,4.2h-0.2l-0.4-3.5h-5v25.8h6v-18c2-2.2,3.8-3.2,5.4-3.2c2.7,0,4,1.6,4,5.8v15.4h6
				v-18c2-2.2,3.8-3.2,5.4-3.2c2.7,0,3.9,1.6,3.9,5.8v15.4h6.1V25.3C332.2,18.8,329.6,15,324.2,15z M363.1,43.8h2.9v-38h-2.9V43.8z"
				/>
		</g>
	</g>
</g>
</svg>
